<svg xmlns="http://www.w3.org/2000/svg" xmlns:xlink="http://www.w3.org/1999/xlink"><defs>
<clipPath id="clip0_702_633">
<rect width="12" height="12" fill="white"/>
</clipPath>

<clipPath id="clip0_3101_44">
<rect width="142" height="42" fill="CurrentColor"/>
</clipPath>

<clipPath id="clip0_702_629">
<rect width="12" height="12" fill="white"/>
</clipPath>
</defs><symbol id="3-stars-rating" viewBox="0 0 84 16"><g fill="none">
<path d="M7.63441 11.6911L12.3525 14.3L11.1042 9.37971L15.2688 6.0708L9.77893 5.63889L7.63441 1L5.48992 5.63889L0 6.0708L4.16458 9.37971L2.91634 14.3L7.63441 11.6911Z" fill="white"/>
<path d="M24.6344 11.6911L29.3525 14.3L28.1042 9.37971L32.2688 6.0708L26.7789 5.63889L24.6344 1L22.4899 5.63889L17 6.0708L21.1646 9.37971L19.9163 14.3L24.6344 11.6911Z" fill="white"/>
<path d="M41.6344 11.6911L46.3525 14.3L45.1042 9.37971L49.2688 6.0708L43.7789 5.63889L41.6344 1L39.4899 5.63889L34 6.0708L38.1646 9.37971L36.9163 14.3L41.6344 11.6911Z" fill="white"/>
<path fill-rule="evenodd" clip-rule="evenodd" d="M58.6344 10.5484L61.8153 12.3073L60.976 8.99895L63.6574 6.86844L60.1169 6.58989L58.6344 3.38311L57.152 6.58989L53.6114 6.86844L56.2929 8.99895L55.4536 12.3073L58.6344 10.5484ZM53.9163 14.3L55.1646 9.37971L51 6.0708L56.4899 5.63889L58.6344 1L60.7789 5.63889L66.2688 6.0708L62.1042 9.37971L63.3525 14.3L58.6344 11.6911L53.9163 14.3Z" fill="white"/>
<path fill-rule="evenodd" clip-rule="evenodd" d="M75.6344 10.5484L78.8153 12.3073L77.976 8.99895L80.6574 6.86844L77.1169 6.58989L75.6344 3.38311L74.152 6.58989L70.6114 6.86844L73.2929 8.99895L72.4536 12.3073L75.6344 10.5484ZM70.9163 14.3L72.1646 9.37971L68 6.0708L73.4899 5.63889L75.6344 1L77.7789 5.63889L83.2688 6.0708L79.1042 9.37971L80.3525 14.3L75.6344 11.6911L70.9163 14.3Z" fill="white"/>
</g></symbol><symbol id="4-stars-rating" viewBox="0 0 84 16"><g fill="none">
<path d="M7.63441 11.6911L12.3525 14.3L11.1042 9.37971L15.2688 6.0708L9.77893 5.63889L7.63441 1L5.48992 5.63889L0 6.0708L4.16458 9.37971L2.91634 14.3L7.63441 11.6911Z" fill="white"/>
<path d="M24.6344 11.6911L29.3525 14.3L28.1042 9.37971L32.2688 6.0708L26.7789 5.63889L24.6344 1L22.4899 5.63889L17 6.0708L21.1646 9.37971L19.9163 14.3L24.6344 11.6911Z" fill="white"/>
<path d="M41.6344 11.6911L46.3525 14.3L45.1042 9.37971L49.2688 6.0708L43.7789 5.63889L41.6344 1L39.4899 5.63889L34 6.0708L38.1646 9.37971L36.9163 14.3L41.6344 11.6911Z" fill="white"/>
<path d="M58.6344 11.6911L63.3525 14.3L62.1042 9.37971L66.2688 6.0708L60.7789 5.63889L58.6344 1L56.4899 5.63889L51 6.0708L55.1646 9.37971L53.9163 14.3L58.6344 11.6911Z" fill="white"/>
<path fill-rule="evenodd" clip-rule="evenodd" d="M75.6344 10.5484L78.8153 12.3073L77.976 8.99895L80.6574 6.86844L77.1169 6.58989L75.6344 3.38311L74.152 6.58989L70.6114 6.86844L73.2929 8.99895L72.4536 12.3073L75.6344 10.5484ZM70.9163 14.3L72.1646 9.37971L68 6.0708L73.4899 5.63889L75.6344 1L77.7789 5.63889L83.2688 6.0708L79.1042 9.37971L80.3525 14.3L75.6344 11.6911L70.9163 14.3Z" fill="white"/>
</g></symbol><symbol id="arrow-left" viewBox="0 0 14 9"><g fill="currentColor">
<path d="M0.646446 4.85355C0.451184 4.65829 0.451184 4.34171 0.646446 4.14645L3.82843 0.964466C4.02369 0.769204 4.34027 0.769204 4.53553 0.964466C4.7308 1.15973 4.7308 1.47631 4.53553 1.67157L1.70711 4.5L4.53553 7.32843C4.7308 7.52369 4.7308 7.84027 4.53553 8.03553C4.34027 8.2308 4.02369 8.2308 3.82843 8.03553L0.646446 4.85355ZM14 5H1V4H14V5Z" fill="currentColor"/>
</g></symbol><symbol id="burger-menu" viewBox="0 0 26 26"><g fill="none">
<path d="M0 3.54541H26V5.71534H0V3.54541Z" fill="white"/>
<path d="M0 20.2846H26V22.4545H0V20.2846Z" fill="white"/>
<path d="M0 11.915H16.64V14.0849H0V11.915Z" fill="white"/>
</g></symbol><symbol id="cross-close-icon" viewBox="0 0 26 26"><g fill="none">
<path d="M2.36365 2.36365L13 13M23.6364 23.6364L13 13M13 13L23.6364 2.36365L2.36365 23.6364" stroke="#2D383F" stroke-width="2"/>
</g></symbol><symbol id="day-icon" viewBox="0 0 20 20"><g fill="none">
<path d="M13.545 6.45505C12.6455 5.55558 11.3757 4.97357 9.99999 4.97357C8.62433 4.97357 7.35449 5.52912 6.45502 6.45505C5.55555 7.35451 4.97354 8.62435 4.97354 10C4.97354 11.3757 5.55555 12.6455 6.45502 13.545C7.35449 14.4444 8.62433 15.0265 9.99999 15.0265C11.3757 15.0265 12.6455 14.4709 13.545 13.545C14.4444 12.6455 15.0265 11.3757 15.0265 10C15.0265 8.62435 14.4709 7.35451 13.545 6.45505ZM12.5926 12.5926C11.9312 13.254 11.0053 13.6508 9.99999 13.6508C8.9947 13.6508 8.06878 13.254 7.4074 12.5926C6.74603 11.9312 6.3492 11.0053 6.3492 10C6.3492 8.99472 6.74603 8.0688 7.4074 7.40742C8.06878 6.74605 8.9947 6.34922 9.99999 6.34922C11.0053 6.34922 11.9312 6.74605 12.5926 7.40742C13.254 8.0688 13.6508 8.99472 13.6508 10C13.6508 11.0053 13.254 11.9312 12.5926 12.5926Z" fill="white"/>
<path d="M19.3122 9.3122H17.2751C16.9048 9.3122 16.5873 9.62966 16.5873 10C16.5873 10.3704 16.9048 10.6879 17.2751 10.6879H19.3122C19.6825 10.6879 20 10.3704 20 10C20 9.62966 19.6825 9.3122 19.3122 9.3122Z" fill="white"/>
<path d="M9.99999 16.5873C9.62962 16.5873 9.31216 16.9048 9.31216 17.2751V19.3122C9.31216 19.6825 9.62962 20 9.99999 20C10.3704 20 10.6878 19.6825 10.6878 19.3122V17.2751C10.6878 16.9048 10.3704 16.5873 9.99999 16.5873Z" fill="white"/>
<path d="M17.0635 16.1111L15.6085 14.656C15.3704 14.3915 14.9207 14.3915 14.6561 14.656C14.3916 14.9206 14.3916 15.3439 14.6561 15.6084L16.1111 17.0634C16.3757 17.328 16.799 17.328 17.0635 17.0634C17.3281 16.7989 17.3281 16.3756 17.0635 16.1111Z" fill="white"/>
<path d="M9.99999 0C9.62962 0 9.31216 0.317459 9.31216 0.687829V2.72486C9.31216 3.09523 9.62962 3.41269 9.99999 3.41269C10.3704 3.41269 10.6878 3.09523 10.6878 2.72486V0.687829C10.6878 0.317459 10.3704 0 9.99999 0Z" fill="white"/>
<path d="M17.0899 2.93653C16.8254 2.67198 16.4021 2.67198 16.1376 2.93653L14.6825 4.39155C14.418 4.6561 14.418 5.07938 14.6825 5.34393C14.9206 5.60848 15.3704 5.60848 15.6349 5.34393L17.0899 3.88891C17.3545 3.62436 17.3545 3.20108 17.0899 2.93653Z" fill="white"/>
<path d="M2.72487 9.3122H0.687831C0.31746 9.3122 0 9.62966 0 10C0 10.3704 0.291005 10.6879 0.687831 10.6879H2.72487C3.09524 10.6879 3.4127 10.3704 3.4127 10C3.4127 9.62966 3.09524 9.3122 2.72487 9.3122Z" fill="white"/>
<path d="M5.31746 14.656C5.07937 14.3915 4.62963 14.3915 4.36508 14.656L2.91005 16.1111C2.6455 16.3756 2.6455 16.7989 2.91005 17.0634C3.1746 17.328 3.59788 17.328 3.86243 17.0634L5.31746 15.6084C5.58201 15.3439 5.58201 14.9206 5.31746 14.656Z" fill="white"/>
<path d="M5.31746 4.39155L3.86243 2.93653C3.59788 2.67198 3.1746 2.67198 2.91005 2.93653C2.6455 3.20108 2.6455 3.62436 2.91005 3.88891L4.36508 5.34393C4.62963 5.60848 5.05291 5.60848 5.31746 5.34393C5.58201 5.07938 5.58201 4.6561 5.31746 4.39155Z" fill="white"/>
</g></symbol><symbol id="icon-close" viewBox="0 0 20 20"><g fill="none"><path d="M.293 18.291a1 1 0 101.414 1.414L10 11.413l8.292 8.292a1 1 0 101.414-1.414l-8.292-8.292 8.292-8.292A1 1 0 1018.291.293L9.999 8.585 1.707.293A1 1 0 10.293 1.707L8.585 10 .293 18.291z"/></g></symbol><symbol id="level-icon" viewBox="0 0 12 12"><g fill="none">
<g clip-path="url(#clip0_702_633)">
<path d="M10.909 11.4545H8.94536V0.54541H10.909V11.4545Z" stroke="white" stroke-miterlimit="16" stroke-linecap="round"/>
<path d="M6.98173 11.4545V3.52062H5.01809L5.0181 11.4545H6.98173Z" stroke="white" stroke-miterlimit="16" stroke-linecap="round"/>
<path d="M3.05446 11.4545V6.49582H1.09082V11.4545H3.05446Z" stroke="white" stroke-miterlimit="16" stroke-linecap="round"/>
</g>

</g></symbol><symbol id="location-icon" viewBox="0 0 16 16"><g fill="none">
<path d="M8.49981 2C6.01874 2 4 3.98191 4 6.41796C4 7.05338 4.13247 7.66006 4.39354 8.2213C5.51862 10.6383 7.67571 13.1902 8.31017 13.9146C8.35771 13.9688 8.42701 14 8.49994 14C8.57287 14 8.64217 13.9688 8.6897 13.9146C9.32392 13.1903 11.481 10.6386 12.6065 8.2213C12.8677 7.66006 13 7.05338 13 6.41796C12.9998 3.98191 10.981 2 8.49981 2ZM8.49981 8.71267C7.21099 8.71267 6.16234 7.68315 6.16234 6.41784C6.16234 5.15241 7.21099 4.12289 8.49981 4.12289C9.78864 4.12289 10.8373 5.15241 10.8373 6.41784C10.8374 7.68315 9.78876 8.71267 8.49981 8.71267Z" fill="white"/>
</g></symbol><symbol id="logotype-footer" viewBox="0 0 205 62"><g fill="CurrentColor">
<path d="M47.7314 37.2445L51.4995 33.359L55.7857 37.2445H63.1334L51.4524 26.0044L39.8656 37.2445H47.7314Z" fill="CurrentColor"/>
<path d="M58.5178 19.2048L52.9599 24.7555L56.6337 28.4559L58.5178 26.6057L68.8328 36.6894C66.4778 42.8414 60.4489 47.2357 53.3367 47.2357C44.1991 47.2357 36.8043 39.9736 36.8043 31C36.8514 22.0264 44.2462 14.7643 53.3838 14.7643C61.4851 14.7643 68.2676 20.5463 69.6336 28.0859L74.6262 33.2665C74.7204 32.5264 74.7675 31.7401 74.7675 31C74.7675 25.4031 72.5538 20.13 68.5031 16.152C64.4525 12.174 59.083 10 53.3838 10C47.6375 10 42.3151 12.174 38.2644 16.152C34.2137 20.13 32 25.3568 32 31C32 36.6432 34.2137 41.87 38.2644 45.848C42.3151 49.826 47.6846 52 53.3838 52C59.083 52 64.4525 49.826 68.5031 45.848C70.9995 43.3965 72.7893 40.4824 73.7784 37.2907C73.9668 36.7357 74.1081 36.1344 74.2494 35.5793L69.9162 31.0925L58.5178 19.2048Z" fill="CurrentColor"/>
<path d="M92.4115 23.4945H95.5561L93.8408 31.9634H99.1453L98.6371 34.4121H90.1881L92.4115 23.4945Z" fill="CurrentColor"/>
<path d="M102.105 23.4945H105.249L103.026 34.4121H99.8815L102.105 23.4945Z" fill="CurrentColor"/>
<path d="M110.139 25.8808L109.647 28.2826H114.554L114.062 30.6689H109.17L108.408 34.4121H105.263L107.487 23.4945H116.19L115.697 25.8808H110.139Z" fill="CurrentColor"/>
<path d="M120.281 25.8808L119.916 27.7212H124.855L124.394 30.0295H119.439L119.042 32.0258H124.871L124.363 34.4121H115.453L117.676 23.4945H126.38L125.887 25.8808H120.281Z" fill="CurrentColor"/>
<path d="M130.205 25.9431H126.79L127.299 23.4945H137.256L136.748 25.9431H133.35L131.618 34.4121H128.474L130.205 25.9431Z" fill="CurrentColor"/>
<path d="M142.053 34.6305C140.93 34.6305 139.951 34.4277 139.115 34.0222C138.289 33.6167 137.648 33.05 137.193 32.3222C136.748 31.5943 136.526 30.7625 136.526 29.8267C136.526 28.579 136.817 27.456 137.399 26.4578C137.992 25.4596 138.813 24.6798 139.861 24.1183C140.92 23.5569 142.122 23.2761 143.466 23.2761C144.588 23.2761 145.563 23.4789 146.388 23.8844C147.225 24.2899 147.865 24.8566 148.31 25.5844C148.765 26.3123 148.993 27.1441 148.993 28.0799C148.993 29.3276 148.697 30.4506 148.104 31.4488C147.521 32.4469 146.701 33.2268 145.642 33.7882C144.594 34.3497 143.397 34.6305 142.053 34.6305ZM142.323 32.0726C143.021 32.0726 143.636 31.9011 144.165 31.5579C144.694 31.2148 145.102 30.7573 145.388 30.1854C145.674 29.6032 145.817 28.9637 145.817 28.267C145.817 27.5288 145.584 26.9413 145.118 26.5046C144.663 26.0575 144.022 25.834 143.196 25.834C142.497 25.834 141.883 26.0055 141.354 26.3487C140.825 26.6918 140.417 27.1545 140.131 27.7368C139.845 28.3086 139.702 28.9429 139.702 29.6395C139.702 30.3778 139.93 30.9705 140.385 31.4176C140.851 31.8543 141.497 32.0726 142.323 32.0726Z" fill="CurrentColor"/>
<path d="M154.896 34.6305C153.933 34.6305 153.102 34.4745 152.403 34.1626C151.704 33.8402 151.169 33.3827 150.799 32.7901C150.428 32.1974 150.243 31.5007 150.243 30.7001C150.243 30.3674 150.285 29.9827 150.37 29.546L151.609 23.4945H154.753L153.53 29.4992C153.467 29.8111 153.435 30.097 153.435 30.357C153.435 31.5007 154.049 32.0726 155.277 32.0726C155.944 32.0726 156.469 31.8751 156.85 31.4799C157.241 31.0744 157.533 30.4142 157.723 29.4992L158.946 23.4945H162.043L160.788 29.6863C160.111 32.9824 158.147 34.6305 154.896 34.6305Z" fill="CurrentColor"/>
<path d="M173.416 26.9725C173.416 27.9707 173.146 28.8337 172.606 29.5616C172.066 30.279 171.309 30.8041 170.335 31.1368L172.225 34.4121H168.938L167.286 31.5111H165.698L165.11 34.4121H161.966L164.189 23.4945H168.938C170.357 23.4945 171.458 23.8012 172.241 24.4147C173.025 25.0281 173.416 25.8808 173.416 26.9725ZM170.24 27.2689C170.24 26.8218 170.087 26.489 169.779 26.2707C169.472 26.0419 169.044 25.9275 168.493 25.9275H166.841L166.174 29.1249H168.048C168.747 29.1249 169.287 28.9637 169.668 28.6414C170.049 28.319 170.24 27.8615 170.24 27.2689Z" fill="CurrentColor"/>
<path d="M92.2817 44.7063C91.8987 44.7063 91.5507 44.6231 91.2376 44.4567C90.9283 44.2867 90.6852 44.0553 90.5085 43.7623C90.3354 43.4694 90.2488 43.1403 90.2488 42.775C90.2488 42.4097 90.3354 42.0806 90.5085 41.7877C90.6852 41.4947 90.9283 41.2651 91.2376 41.0987C91.5507 40.9287 91.8987 40.8437 92.2817 40.8437C92.6647 40.8437 93.009 40.9269 93.3147 41.0933C93.624 41.2596 93.8671 41.4911 94.0439 41.7877C94.2206 42.0806 94.309 42.4097 94.309 42.775C94.309 43.1403 94.2206 43.4712 94.0439 43.7678C93.8671 44.0607 93.624 44.2904 93.3147 44.4567C93.009 44.6231 92.6647 44.7063 92.2817 44.7063ZM92.2817 44.3482C92.5873 44.3482 92.8635 44.2813 93.1103 44.1475C93.357 44.0101 93.5504 43.822 93.6903 43.5833C93.8303 43.341 93.9002 43.0716 93.9002 42.775C93.9002 42.4784 93.8303 42.2108 93.6903 41.9721C93.5504 41.7298 93.357 41.5417 93.1103 41.4079C92.8635 41.2705 92.5873 41.2018 92.2817 41.2018C91.976 41.2018 91.698 41.2705 91.4475 41.4079C91.2008 41.5417 91.0056 41.7298 90.862 41.9721C90.7221 42.2108 90.6521 42.4784 90.6521 42.775C90.6521 43.0716 90.7221 43.341 90.862 43.5833C91.0056 43.822 91.2008 44.0101 91.4475 44.1475C91.698 44.2813 91.976 44.3482 92.2817 44.3482Z" fill="CurrentColor"/>
<path d="M96.6876 41.7985C96.9601 41.7985 97.2068 41.86 97.4278 41.983C97.6488 42.1023 97.8219 42.2723 97.9471 42.4929C98.0723 42.7135 98.1349 42.9649 98.1349 43.247C98.1349 43.5327 98.0723 43.7858 97.9471 44.0065C97.8219 44.2271 97.6488 44.3989 97.4278 44.5218C97.2105 44.6412 96.9638 44.7008 96.6876 44.7008C96.4519 44.7008 96.2383 44.6538 96.0468 44.5598C95.859 44.4622 95.7043 44.3211 95.5828 44.1367V45.7262H95.1906V41.8202H95.5662V42.3844C95.684 42.1963 95.8387 42.0517 96.0302 41.9504C96.2254 41.8492 96.4445 41.7985 96.6876 41.7985ZM96.66 44.3591C96.8625 44.3591 97.0466 44.3139 97.2124 44.2235C97.3781 44.1294 97.507 43.9974 97.5991 43.8274C97.6948 43.6575 97.7427 43.464 97.7427 43.247C97.7427 43.03 97.6948 42.8383 97.5991 42.6719C97.507 42.5019 97.3781 42.3699 97.2124 42.2759C97.0466 42.1819 96.8625 42.1349 96.66 42.1349C96.4537 42.1349 96.2678 42.1819 96.102 42.2759C95.94 42.3699 95.8111 42.5019 95.7154 42.6719C95.6233 42.8383 95.5772 43.03 95.5772 43.247C95.5772 43.464 95.6233 43.6575 95.7154 43.8274C95.8111 43.9974 95.94 44.1294 96.102 44.2235C96.2678 44.3139 96.4537 44.3591 96.66 44.3591Z" fill="CurrentColor"/>
<path d="M101.033 42.162H99.3698V44.6737H98.9776V41.8202H101.033V42.162Z" fill="CurrentColor"/>
<path d="M102.599 41.7985C102.979 41.7985 103.269 41.8925 103.472 42.0806C103.675 42.2651 103.776 42.5399 103.776 42.9052V44.6737H103.4V44.2289C103.312 44.3772 103.181 44.4929 103.008 44.5761C102.839 44.6593 102.636 44.7008 102.4 44.7008C102.076 44.7008 101.818 44.6249 101.627 44.473C101.435 44.3211 101.34 44.1204 101.34 43.8708C101.34 43.6285 101.428 43.4332 101.605 43.2849C101.785 43.1367 102.071 43.0625 102.461 43.0625H103.384V42.8889C103.384 42.643 103.314 42.4567 103.174 42.3302C103.034 42.2 102.829 42.1349 102.561 42.1349C102.376 42.1349 102.2 42.1656 102.03 42.2271C101.861 42.285 101.715 42.3663 101.594 42.4712L101.417 42.1837C101.564 42.0607 101.741 41.9667 101.947 41.9016C102.154 41.8329 102.371 41.7985 102.599 41.7985ZM102.461 44.3971C102.682 44.3971 102.872 44.3482 103.03 44.2506C103.188 44.1493 103.306 44.0047 103.384 43.8166V43.35H102.472C101.975 43.35 101.726 43.52 101.726 43.86C101.726 44.0263 101.791 44.1584 101.92 44.256C102.049 44.35 102.229 44.3971 102.461 44.3971Z" fill="CurrentColor"/>
<path d="M104.82 41.8202H105.212V43.0842H107.041V41.8202H107.433V44.6737H107.041V43.4151H105.212V44.6737H104.82V41.8202Z" fill="CurrentColor"/>
<path d="M108.548 41.8202H108.94V44.0878L110.879 41.8202H111.227V44.6737H110.835V42.4061L108.901 44.6737H108.548V41.8202Z" fill="CurrentColor"/>
<path d="M113.706 43.1873C113.912 43.2343 114.07 43.3157 114.181 43.4314C114.295 43.5471 114.352 43.6882 114.352 43.8546C114.352 44.0209 114.293 44.1692 114.175 44.2994C114.061 44.4296 113.904 44.5309 113.706 44.6032C113.507 44.6719 113.288 44.7063 113.048 44.7063C112.838 44.7063 112.632 44.6773 112.43 44.6195C112.227 44.558 112.05 44.4694 111.899 44.3537L112.032 44.0661C112.164 44.1638 112.319 44.2397 112.496 44.294C112.673 44.3482 112.851 44.3754 113.032 44.3754C113.3 44.3754 113.52 44.3265 113.689 44.2289C113.862 44.1276 113.949 43.992 113.949 43.822C113.949 43.6701 113.879 43.5526 113.739 43.4694C113.599 43.3826 113.407 43.3392 113.164 43.3392H112.667V43.0571H113.142C113.359 43.0571 113.534 43.0173 113.667 42.9377C113.799 42.8546 113.866 42.7443 113.866 42.6068C113.866 42.4549 113.79 42.3356 113.639 42.2488C113.492 42.162 113.299 42.1186 113.059 42.1186C112.746 42.1186 112.437 42.1963 112.131 42.3519L112.021 42.0535C112.367 41.8763 112.726 41.7877 113.098 41.7877C113.319 41.7877 113.518 41.8202 113.695 41.8853C113.875 41.9468 114.015 42.0354 114.114 42.1511C114.217 42.2669 114.269 42.4007 114.269 42.5526C114.269 42.6972 114.217 42.8256 114.114 42.9377C114.015 43.0499 113.879 43.133 113.706 43.1873Z" fill="CurrentColor"/>
<path d="M116.242 41.7985C116.621 41.7985 116.912 41.8925 117.115 42.0806C117.317 42.2651 117.419 42.5399 117.419 42.9052V44.6737H117.043V44.2289C116.955 44.3772 116.824 44.4929 116.651 44.5761C116.481 44.6593 116.279 44.7008 116.043 44.7008C115.719 44.7008 115.461 44.6249 115.27 44.473C115.078 44.3211 114.983 44.1204 114.983 43.8708C114.983 43.6285 115.071 43.4332 115.248 43.2849C115.428 43.1367 115.714 43.0625 116.104 43.0625H117.027V42.8889C117.027 42.643 116.957 42.4567 116.817 42.3302C116.677 42.2 116.472 42.1349 116.203 42.1349C116.019 42.1349 115.843 42.1656 115.673 42.2271C115.504 42.285 115.358 42.3663 115.237 42.4712L115.06 42.1837C115.207 42.0607 115.384 41.9667 115.59 41.9016C115.796 41.8329 116.014 41.7985 116.242 41.7985ZM116.104 44.3971C116.325 44.3971 116.515 44.3482 116.673 44.2506C116.831 44.1493 116.949 44.0047 117.027 43.8166V43.35H116.115C115.618 43.35 115.369 43.52 115.369 43.86C115.369 44.0263 115.434 44.1584 115.563 44.256C115.692 44.35 115.872 44.3971 116.104 44.3971Z" fill="CurrentColor"/>
<path d="M121.49 44.3374V45.3898H121.12V44.6737H118.463V41.8202H118.855V44.3374H120.628V41.8202H121.02V44.3374H121.49Z" fill="CurrentColor"/>
<path d="M122.239 41.8202H122.631V44.0878L124.57 41.8202H124.918V44.6737H124.526V42.4061L122.593 44.6737H122.239V41.8202Z" fill="CurrentColor"/>
<path d="M128.274 41.8202V44.6737H127.915V43.7298H126.893L126.219 44.6737H125.794L126.517 43.6755C126.293 43.6141 126.12 43.5092 125.998 43.3609C125.876 43.2126 125.816 43.0245 125.816 42.7967C125.816 42.4784 125.926 42.2361 126.147 42.0698C126.368 41.9034 126.67 41.8202 127.053 41.8202H128.274ZM126.213 42.8076C126.213 43.2307 126.488 43.4423 127.037 43.4423H127.915V42.162H127.064C126.497 42.162 126.213 42.3772 126.213 42.8076Z" fill="CurrentColor"/>
<path d="M133.445 41.8202V44.6737H133.053V42.162H131.23V44.6737H130.838V41.8202H133.445Z" fill="CurrentColor"/>
<path d="M135.759 44.7008C135.479 44.7008 135.227 44.6394 135.002 44.5164C134.778 44.3898 134.601 44.2162 134.472 43.9956C134.343 43.775 134.279 43.5254 134.279 43.247C134.279 42.9685 134.343 42.7189 134.472 42.4983C134.601 42.2777 134.778 42.1059 135.002 41.983C135.227 41.86 135.479 41.7985 135.759 41.7985C136.039 41.7985 136.291 41.86 136.516 41.983C136.74 42.1059 136.915 42.2777 137.041 42.4983C137.169 42.7189 137.234 42.9685 137.234 43.247C137.234 43.5254 137.169 43.775 137.041 43.9956C136.915 44.2162 136.74 44.3898 136.516 44.5164C136.291 44.6394 136.039 44.7008 135.759 44.7008ZM135.759 44.3591C135.965 44.3591 136.149 44.3139 136.311 44.2235C136.477 44.1294 136.606 43.9974 136.698 43.8274C136.79 43.6575 136.836 43.464 136.836 43.247C136.836 43.03 136.79 42.8365 136.698 42.6665C136.606 42.4965 136.477 42.3663 136.311 42.2759C136.149 42.1819 135.965 42.1349 135.759 42.1349C135.553 42.1349 135.367 42.1819 135.201 42.2759C135.039 42.3663 134.91 42.4965 134.814 42.6665C134.722 42.8365 134.676 43.03 134.676 43.247C134.676 43.464 134.722 43.6575 134.814 43.8274C134.91 43.9974 135.039 44.1294 135.201 44.2235C135.367 44.3139 135.553 44.3591 135.759 44.3591Z" fill="CurrentColor"/>
<path d="M139.787 44.6737L138.865 43.4802L137.936 44.6737H137.495L138.644 43.209L137.55 41.8202H137.992L138.865 42.9377L139.737 41.8202H140.168L139.074 43.209L140.234 44.6737H139.787Z" fill="CurrentColor"/>
<path d="M141.974 44.7008C141.694 44.7008 141.441 44.6394 141.217 44.5164C140.992 44.3898 140.815 44.2162 140.686 43.9956C140.558 43.775 140.493 43.5254 140.493 43.247C140.493 42.9685 140.558 42.7189 140.686 42.4983C140.815 42.2777 140.992 42.1059 141.217 41.983C141.441 41.86 141.694 41.7985 141.974 41.7985C142.253 41.7985 142.506 41.86 142.73 41.983C142.955 42.1059 143.13 42.2777 143.255 42.4983C143.384 42.7189 143.448 42.9685 143.448 43.247C143.448 43.5254 143.384 43.775 143.255 43.9956C143.13 44.2162 142.955 44.3898 142.73 44.5164C142.506 44.6394 142.253 44.7008 141.974 44.7008ZM141.974 44.3591C142.18 44.3591 142.364 44.3139 142.526 44.2235C142.692 44.1294 142.821 43.9974 142.913 43.8274C143.005 43.6575 143.051 43.464 143.051 43.247C143.051 43.03 143.005 42.8365 142.913 42.6665C142.821 42.4965 142.692 42.3663 142.526 42.2759C142.364 42.1819 142.18 42.1349 141.974 42.1349C141.767 42.1349 141.581 42.1819 141.416 42.2759C141.254 42.3663 141.125 42.4965 141.029 42.6665C140.937 42.8365 140.891 43.03 140.891 43.247C140.891 43.464 140.937 43.6575 141.029 43.8274C141.125 43.9974 141.254 44.1294 141.416 44.2235C141.581 44.3139 141.767 44.3591 141.974 44.3591Z" fill="CurrentColor"/>
<path d="M147.104 44.3374V45.3627H146.734V44.6737H144.132V45.3627H143.762V44.3374H143.928C144.123 44.3265 144.256 44.1855 144.326 43.9142C144.396 43.643 144.444 43.2632 144.469 42.775L144.508 41.8202H146.651V44.3374H147.104ZM144.828 42.7967C144.81 43.2018 144.775 43.5363 144.723 43.8003C144.672 44.0607 144.58 44.2397 144.447 44.3374H146.259V42.162H144.862L144.828 42.7967Z" fill="CurrentColor"/>
<path d="M149.067 44.7008C148.788 44.7008 148.535 44.6394 148.311 44.5164C148.086 44.3898 147.909 44.2162 147.78 43.9956C147.651 43.775 147.587 43.5254 147.587 43.247C147.587 42.9685 147.651 42.7189 147.78 42.4983C147.909 42.2777 148.086 42.1059 148.311 41.983C148.535 41.86 148.788 41.7985 149.067 41.7985C149.347 41.7985 149.6 41.86 149.824 41.983C150.049 42.1059 150.224 42.2777 150.349 42.4983C150.478 42.7189 150.542 42.9685 150.542 43.247C150.542 43.5254 150.478 43.775 150.349 43.9956C150.224 44.2162 150.049 44.3898 149.824 44.5164C149.6 44.6394 149.347 44.7008 149.067 44.7008ZM149.067 44.3591C149.274 44.3591 149.458 44.3139 149.62 44.2235C149.786 44.1294 149.914 43.9974 150.006 43.8274C150.099 43.6575 150.145 43.464 150.145 43.247C150.145 43.03 150.099 42.8365 150.006 42.6665C149.914 42.4965 149.786 42.3663 149.62 42.2759C149.458 42.1819 149.274 42.1349 149.067 42.1349C148.861 42.1349 148.675 42.1819 148.509 42.2759C148.347 42.3663 148.219 42.4965 148.123 42.6665C148.031 42.8365 147.985 43.03 147.985 43.247C147.985 43.464 148.031 43.6575 148.123 43.8274C148.219 43.9974 148.347 44.1294 148.509 44.2235C148.675 44.3139 148.861 44.3591 149.067 44.3591Z" fill="CurrentColor"/>
<path d="M153.231 43.1981C153.625 43.2886 153.822 43.5218 153.822 43.898C153.822 44.1475 153.728 44.3392 153.54 44.473C153.353 44.6068 153.073 44.6737 152.701 44.6737H151.381V41.8202H152.662C152.994 41.8202 153.253 41.8835 153.441 42.0101C153.629 42.1367 153.723 42.3175 153.723 42.5526C153.723 42.7081 153.679 42.8419 153.59 42.954C153.505 43.0625 153.386 43.1439 153.231 43.1981ZM151.762 43.0896H152.635C152.859 43.0896 153.03 43.0481 153.148 42.9649C153.27 42.8817 153.331 42.7605 153.331 42.6014C153.331 42.4423 153.27 42.3229 153.148 42.2434C153.03 42.1638 152.859 42.124 152.635 42.124H151.762V43.0896ZM152.684 44.3699C152.935 44.3699 153.122 44.3301 153.248 44.2506C153.373 44.171 153.436 44.0462 153.436 43.8763C153.436 43.7063 153.378 43.5815 153.264 43.5019C153.15 43.4188 152.97 43.3772 152.723 43.3772H151.762V44.3699H152.684Z" fill="CurrentColor"/>
<path d="M158.038 43.1981C158.432 43.2886 158.629 43.5218 158.629 43.898C158.629 44.1475 158.535 44.3392 158.347 44.473C158.159 44.6068 157.879 44.6737 157.507 44.6737H156.187V41.8202H157.469C157.8 41.8202 158.06 41.8835 158.248 42.0101C158.435 42.1367 158.529 42.3175 158.529 42.5526C158.529 42.7081 158.485 42.8419 158.397 42.954C158.312 43.0625 158.192 43.1439 158.038 43.1981ZM156.568 43.0896H157.441C157.666 43.0896 157.837 43.0481 157.955 42.9649C158.076 42.8817 158.137 42.7605 158.137 42.6014C158.137 42.4423 158.076 42.3229 157.955 42.2434C157.837 42.1638 157.666 42.124 157.441 42.124H156.568V43.0896ZM157.491 44.3699C157.741 44.3699 157.929 44.3301 158.054 44.2506C158.179 44.171 158.242 44.0462 158.242 43.8763C158.242 43.7063 158.185 43.5815 158.071 43.5019C157.957 43.4188 157.776 43.3772 157.529 43.3772H156.568V44.3699H157.491Z" fill="CurrentColor"/>
<path d="M163.049 42.162H161.386V44.6737H160.994V41.8202H163.049V42.162Z" fill="CurrentColor"/>
<path d="M164.679 44.7008C164.399 44.7008 164.147 44.6394 163.923 44.5164C163.698 44.3898 163.521 44.2162 163.392 43.9956C163.263 43.775 163.199 43.5254 163.199 43.247C163.199 42.9685 163.263 42.7189 163.392 42.4983C163.521 42.2777 163.698 42.1059 163.923 41.983C164.147 41.86 164.399 41.7985 164.679 41.7985C164.959 41.7985 165.211 41.86 165.436 41.983C165.661 42.1059 165.836 42.2777 165.961 42.4983C166.09 42.7189 166.154 42.9685 166.154 43.247C166.154 43.5254 166.09 43.775 165.961 43.9956C165.836 44.2162 165.661 44.3898 165.436 44.5164C165.211 44.6394 164.959 44.7008 164.679 44.7008ZM164.679 44.3591C164.886 44.3591 165.07 44.3139 165.232 44.2235C165.397 44.1294 165.526 43.9974 165.618 43.8274C165.71 43.6575 165.757 43.464 165.757 43.247C165.757 43.03 165.71 42.8365 165.618 42.6665C165.526 42.4965 165.397 42.3663 165.232 42.2759C165.07 42.1819 164.886 42.1349 164.679 42.1349C164.473 42.1349 164.287 42.1819 164.121 42.2759C163.959 42.3663 163.83 42.4965 163.735 42.6665C163.643 42.8365 163.597 43.03 163.597 43.247C163.597 43.464 163.643 43.6575 163.735 43.8274C163.83 43.9974 163.959 44.1294 164.121 44.2235C164.287 44.3139 164.473 44.3591 164.679 44.3591Z" fill="CurrentColor"/>
<path d="M168.49 41.7985C168.762 41.7985 169.009 41.86 169.23 41.983C169.451 42.1023 169.624 42.2723 169.749 42.4929C169.874 42.7135 169.937 42.9649 169.937 43.247C169.937 43.5327 169.874 43.7858 169.749 44.0065C169.624 44.2271 169.451 44.3989 169.23 44.5218C169.012 44.6412 168.766 44.7008 168.49 44.7008C168.254 44.7008 168.04 44.6538 167.849 44.5598C167.661 44.4622 167.506 44.3211 167.385 44.1367V45.7262H166.992V41.8202H167.368V42.3844C167.486 42.1963 167.641 42.0517 167.832 41.9504C168.027 41.8492 168.246 41.7985 168.49 41.7985ZM168.462 44.3591C168.664 44.3591 168.849 44.3139 169.014 44.2235C169.18 44.1294 169.309 43.9974 169.401 43.8274C169.497 43.6575 169.545 43.464 169.545 43.247C169.545 43.03 169.497 42.8383 169.401 42.6719C169.309 42.5019 169.18 42.3699 169.014 42.2759C168.849 42.1819 168.664 42.1349 168.462 42.1349C168.256 42.1349 168.07 42.1819 167.904 42.2759C167.742 42.3699 167.613 42.5019 167.517 42.6719C167.425 42.8383 167.379 43.03 167.379 43.247C167.379 43.464 167.425 43.6575 167.517 43.8274C167.613 43.9974 167.742 44.1294 167.904 44.2235C168.07 44.3139 168.256 44.3591 168.462 44.3591Z" fill="CurrentColor"/>
<path d="M172 42.8293C172.365 42.8329 172.643 42.9124 172.834 43.0679C173.026 43.2235 173.122 43.4477 173.122 43.7406C173.122 44.0444 173.019 44.2777 172.812 44.4404C172.606 44.6032 172.311 44.6828 171.928 44.6791L170.779 44.6737V41.8202H171.172V42.8184L172 42.8293ZM173.608 41.8202H174V44.6737H173.608V41.8202ZM171.906 44.3862C172.175 44.3898 172.378 44.3374 172.514 44.2289C172.654 44.1168 172.724 43.954 172.724 43.7406C172.724 43.5309 172.656 43.3754 172.52 43.2741C172.383 43.1728 172.179 43.1204 171.906 43.1168L171.172 43.1059V44.3754L171.906 44.3862Z" fill="CurrentColor"/>
</g></symbol><symbol id="logotype-header" viewBox="0 0 142 42"><g fill="CurrentColor">
<g clip-path="url(#clip0_3101_44)">
<path d="M15.7314 27.2445L19.4995 23.359L23.7857 27.2445H31.1334L19.4524 16.0044L7.86561 27.2445H15.7314Z" fill="CurrentColor"/>
<path d="M26.5178 9.20485L20.9599 14.7555L24.6337 18.4559L26.5178 16.6057L36.8328 26.6894C34.4778 32.8414 28.4489 37.2357 21.3367 37.2357C12.1991 37.2357 4.80428 29.9736 4.80428 21C4.85138 12.0264 12.2462 4.76432 21.3838 4.76432C29.4851 4.76432 36.2676 10.5463 37.6336 18.0859L42.6262 23.2665C42.7204 22.5264 42.7675 21.7401 42.7675 21C42.7675 15.4031 40.5538 10.13 36.5031 6.15198C32.4525 2.17401 27.083 0 21.3838 0C15.6375 0 10.3151 2.17401 6.26441 6.15198C2.21374 10.13 0 15.3568 0 21C0 26.6432 2.21374 31.87 6.26441 35.848C10.3151 39.826 15.6846 42 21.3838 42C27.083 42 32.4525 39.826 36.5031 35.848C38.9995 33.3965 40.7893 30.4824 41.7784 27.2907C41.9668 26.7357 42.1081 26.1344 42.2494 25.5793L37.9162 21.0925L26.5178 9.20485Z" fill="CurrentColor"/>
<path d="M60.4115 13.4945H63.5561L61.8408 21.9634H67.1453L66.6371 24.4121H58.1881L60.4115 13.4945Z" fill="CurrentColor"/>
<path d="M70.1049 13.4945H73.2495L71.026 24.4121H67.8815L70.1049 13.4945Z" fill="CurrentColor"/>
<path d="M78.1389 15.8808L77.6466 18.2826H82.554L82.0617 20.6689H77.1701L76.4078 24.4121H73.2632L75.4867 13.4945H84.1898L83.6975 15.8808H78.1389Z" fill="CurrentColor"/>
<path d="M88.2809 15.8808L87.9157 17.7212H92.8549L92.3943 20.0295H87.4392L87.0422 22.0258H92.8707L92.3625 24.4121H83.4529L85.6764 13.4945H94.3795L93.8872 15.8808H88.2809Z" fill="CurrentColor"/>
<path d="M98.205 15.9431H94.7904L95.2987 13.4945H105.256L104.748 15.9431H101.35L99.6185 24.4121H96.4739L98.205 15.9431Z" fill="CurrentColor"/>
<path d="M110.053 24.6305C108.93 24.6305 107.951 24.4277 107.115 24.0222C106.289 23.6167 105.648 23.05 105.193 22.3222C104.748 21.5943 104.526 20.7625 104.526 19.8267C104.526 18.579 104.817 17.456 105.399 16.4578C105.992 15.4596 106.813 14.6798 107.861 14.1183C108.92 13.5569 110.122 13.2761 111.466 13.2761C112.588 13.2761 113.563 13.4789 114.388 13.8844C115.225 14.2899 115.865 14.8566 116.31 15.5844C116.765 16.3123 116.993 17.1441 116.993 18.0799C116.993 19.3276 116.697 20.4506 116.104 21.4488C115.521 22.4469 114.701 23.2268 113.642 23.7882C112.594 24.3497 111.397 24.6305 110.053 24.6305ZM110.323 22.0726C111.021 22.0726 111.636 21.9011 112.165 21.5579C112.694 21.2148 113.102 20.7573 113.388 20.1854C113.674 19.6032 113.817 18.9637 113.817 18.267C113.817 17.5288 113.584 16.9413 113.118 16.5046C112.663 16.0575 112.022 15.834 111.196 15.834C110.497 15.834 109.883 16.0055 109.354 16.3487C108.825 16.6918 108.417 17.1545 108.131 17.7368C107.845 18.3086 107.702 18.9429 107.702 19.6395C107.702 20.3778 107.93 20.9705 108.385 21.4176C108.851 21.8543 109.497 22.0726 110.323 22.0726Z" fill="CurrentColor"/>
<path d="M122.896 24.6305C121.933 24.6305 121.102 24.4745 120.403 24.1626C119.704 23.8402 119.169 23.3827 118.799 22.7901C118.428 22.1974 118.243 21.5007 118.243 20.7001C118.243 20.3674 118.285 19.9827 118.37 19.546L119.609 13.4945H122.753L121.53 19.4992C121.467 19.8111 121.435 20.097 121.435 20.357C121.435 21.5007 122.049 22.0726 123.277 22.0726C123.944 22.0726 124.469 21.8751 124.85 21.4799C125.241 21.0744 125.533 20.4142 125.723 19.4992L126.946 13.4945H130.043L128.788 19.6863C128.111 22.9824 126.147 24.6305 122.896 24.6305Z" fill="CurrentColor"/>
<path d="M141.416 16.9725C141.416 17.9707 141.146 18.8337 140.606 19.5616C140.066 20.279 139.309 20.8041 138.335 21.1368L140.225 24.4121H136.938L135.286 21.5111H133.698L133.11 24.4121H129.966L132.189 13.4945H136.938C138.357 13.4945 139.458 13.8012 140.241 14.4147C141.025 15.0281 141.416 15.8808 141.416 16.9725ZM138.24 17.2689C138.24 16.8218 138.087 16.489 137.779 16.2707C137.472 16.0419 137.044 15.9275 136.493 15.9275H134.841L134.174 19.1249H136.048C136.747 19.1249 137.287 18.9637 137.668 18.6414C138.049 18.319 138.24 17.8615 138.24 17.2689Z" fill="CurrentColor"/>
<path d="M60.2817 34.7063C59.8987 34.7063 59.5507 34.6231 59.2376 34.4567C58.9283 34.2867 58.6852 34.0553 58.5085 33.7623C58.3354 33.4694 58.2488 33.1403 58.2488 32.775C58.2488 32.4097 58.3354 32.0806 58.5085 31.7877C58.6852 31.4947 58.9283 31.2651 59.2376 31.0987C59.5507 30.9287 59.8987 30.8437 60.2817 30.8437C60.6647 30.8437 61.009 30.9269 61.3147 31.0933C61.624 31.2596 61.8671 31.4911 62.0439 31.7877C62.2206 32.0806 62.309 32.4097 62.309 32.775C62.309 33.1403 62.2206 33.4712 62.0439 33.7678C61.8671 34.0607 61.624 34.2904 61.3147 34.4567C61.009 34.6231 60.6647 34.7063 60.2817 34.7063ZM60.2817 34.3482C60.5873 34.3482 60.8635 34.2813 61.1103 34.1475C61.357 34.0101 61.5504 33.822 61.6903 33.5833C61.8303 33.341 61.9002 33.0716 61.9002 32.775C61.9002 32.4784 61.8303 32.2108 61.6903 31.9721C61.5504 31.7298 61.357 31.5417 61.1103 31.4079C60.8635 31.2705 60.5873 31.2018 60.2817 31.2018C59.976 31.2018 59.698 31.2705 59.4475 31.4079C59.2008 31.5417 59.0056 31.7298 58.862 31.9721C58.7221 32.2108 58.6521 32.4784 58.6521 32.775C58.6521 33.0716 58.7221 33.341 58.862 33.5833C59.0056 33.822 59.2008 34.0101 59.4475 34.1475C59.698 34.2813 59.976 34.3482 60.2817 34.3482Z" fill="CurrentColor"/>
<path d="M64.6876 31.7985C64.9601 31.7985 65.2068 31.86 65.4278 31.983C65.6488 32.1023 65.8219 32.2723 65.9471 32.4929C66.0723 32.7135 66.1349 32.9649 66.1349 33.247C66.1349 33.5327 66.0723 33.7858 65.9471 34.0065C65.8219 34.2271 65.6488 34.3989 65.4278 34.5218C65.2105 34.6412 64.9638 34.7008 64.6876 34.7008C64.4519 34.7008 64.2383 34.6538 64.0468 34.5598C63.859 34.4622 63.7043 34.3211 63.5828 34.1367V35.7262H63.1906V31.8202H63.5662V32.3844C63.684 32.1963 63.8387 32.0517 64.0302 31.9504C64.2254 31.8492 64.4445 31.7985 64.6876 31.7985ZM64.66 34.3591C64.8625 34.3591 65.0466 34.3139 65.2124 34.2235C65.3781 34.1294 65.507 33.9974 65.5991 33.8274C65.6948 33.6575 65.7427 33.464 65.7427 33.247C65.7427 33.03 65.6948 32.8383 65.5991 32.6719C65.507 32.5019 65.3781 32.3699 65.2124 32.2759C65.0466 32.1819 64.8625 32.1349 64.66 32.1349C64.4537 32.1349 64.2678 32.1819 64.102 32.2759C63.94 32.3699 63.8111 32.5019 63.7154 32.6719C63.6233 32.8383 63.5772 33.03 63.5772 33.247C63.5772 33.464 63.6233 33.6575 63.7154 33.8274C63.8111 33.9974 63.94 34.1294 64.102 34.2235C64.2678 34.3139 64.4537 34.3591 64.66 34.3591Z" fill="CurrentColor"/>
<path d="M69.0325 32.162H67.3698V34.6737H66.9776V31.8202H69.0325V32.162Z" fill="CurrentColor"/>
<path d="M70.5992 31.7985C70.9785 31.7985 71.2694 31.8925 71.472 32.0806C71.6745 32.2651 71.7758 32.5399 71.7758 32.9052V34.6737H71.4002V34.2289C71.3118 34.3772 71.1811 34.4929 71.008 34.5761C70.8386 34.6593 70.636 34.7008 70.4003 34.7008C70.0762 34.7008 69.8185 34.6249 69.627 34.473C69.4355 34.3211 69.3397 34.1204 69.3397 33.8708C69.3397 33.6285 69.4281 33.4332 69.6049 33.2849C69.7853 33.1367 70.0707 33.0625 70.4611 33.0625H71.3836V32.8889C71.3836 32.643 71.3136 32.4567 71.1737 32.3302C71.0337 32.2 70.8294 32.1349 70.5605 32.1349C70.3764 32.1349 70.1996 32.1656 70.0302 32.2271C69.8608 32.285 69.7153 32.3663 69.5938 32.4712L69.417 32.1837C69.5643 32.0607 69.7411 31.9667 69.9473 31.9016C70.1536 31.8329 70.3709 31.7985 70.5992 31.7985ZM70.4611 34.3971C70.682 34.3971 70.8717 34.3482 71.0301 34.2506C71.1884 34.1493 71.3063 34.0047 71.3836 33.8166V33.35H70.4721C69.975 33.35 69.7264 33.52 69.7264 33.86C69.7264 34.0263 69.7908 34.1584 69.9197 34.256C70.0486 34.35 70.2291 34.3971 70.4611 34.3971Z" fill="CurrentColor"/>
<path d="M72.8199 31.8202H73.2121V33.0842H75.0406V31.8202H75.4328V34.6737H75.0406V33.4151H73.2121V34.6737H72.8199V31.8202Z" fill="CurrentColor"/>
<path d="M76.5476 31.8202H76.9398V34.0878L78.8787 31.8202H79.2267V34.6737H78.8345V32.4061L76.9011 34.6737H76.5476V31.8202Z" fill="CurrentColor"/>
<path d="M81.7056 33.1873C81.9118 33.2343 82.0701 33.3157 82.1806 33.4314C82.2948 33.5471 82.3519 33.6882 82.3519 33.8546C82.3519 34.0209 82.293 34.1692 82.1751 34.2994C82.0609 34.4296 81.9044 34.5309 81.7056 34.6032C81.5067 34.6719 81.2876 34.7063 81.0482 34.7063C80.8383 34.7063 80.632 34.6773 80.4295 34.6195C80.227 34.558 80.0502 34.4694 79.8992 34.3537L80.0318 34.0661C80.1643 34.1638 80.319 34.2397 80.4958 34.294C80.6726 34.3482 80.8512 34.3754 81.0316 34.3754C81.3005 34.3754 81.5196 34.3265 81.689 34.2289C81.8621 34.1276 81.9486 33.992 81.9486 33.822C81.9486 33.6701 81.8786 33.5526 81.7387 33.4694C81.5988 33.3826 81.4073 33.3392 81.1642 33.3392H80.667V33.0571H81.1421C81.3594 33.0571 81.5343 33.0173 81.6669 32.9377C81.7995 32.8546 81.8658 32.7443 81.8658 32.6068C81.8658 32.4549 81.7903 32.3356 81.6393 32.2488C81.492 32.162 81.2986 32.1186 81.0592 32.1186C80.7462 32.1186 80.4369 32.1963 80.1312 32.3519L80.0207 32.0535C80.3669 31.8763 80.726 31.7877 81.0979 31.7877C81.3189 31.7877 81.5177 31.8202 81.6945 31.8853C81.875 31.9468 82.0149 32.0354 82.1143 32.1511C82.2175 32.2669 82.269 32.4007 82.269 32.5526C82.269 32.6972 82.2175 32.8256 82.1143 32.9377C82.0149 33.0499 81.8786 33.133 81.7056 33.1873Z" fill="CurrentColor"/>
<path d="M84.2421 31.7985C84.6214 31.7985 84.9123 31.8925 85.1149 32.0806C85.3174 32.2651 85.4187 32.5399 85.4187 32.9052V34.6737H85.0431V34.2289C84.9547 34.3772 84.824 34.4929 84.6509 34.5761C84.4815 34.6593 84.2789 34.7008 84.0432 34.7008C83.7191 34.7008 83.4614 34.6249 83.2699 34.473C83.0784 34.3211 82.9826 34.1204 82.9826 33.8708C82.9826 33.6285 83.071 33.4332 83.2478 33.2849C83.4282 33.1367 83.7136 33.0625 84.104 33.0625H85.0265V32.8889C85.0265 32.643 84.9565 32.4567 84.8166 32.3302C84.6766 32.2 84.4723 32.1349 84.2034 32.1349C84.0193 32.1349 83.8425 32.1656 83.6731 32.2271C83.5037 32.285 83.3582 32.3663 83.2367 32.4712L83.0599 32.1837C83.2073 32.0607 83.384 31.9667 83.5902 31.9016C83.7965 31.8329 84.0138 31.7985 84.2421 31.7985ZM84.104 34.3971C84.325 34.3971 84.5146 34.3482 84.673 34.2506C84.8313 34.1493 84.9492 34.0047 85.0265 33.8166V33.35H84.115C83.6179 33.35 83.3693 33.52 83.3693 33.86C83.3693 34.0263 83.4337 34.1584 83.5626 34.256C83.6915 34.35 83.872 34.3971 84.104 34.3971Z" fill="CurrentColor"/>
<path d="M89.49 34.3374V35.3898H89.1199V34.6737H86.4628V31.8202H86.855V34.3374H88.6282V31.8202H89.0204V34.3374H89.49Z" fill="CurrentColor"/>
<path d="M90.239 31.8202H90.6312V34.0878L92.5702 31.8202H92.9182V34.6737H92.526V32.4061L90.5926 34.6737H90.239V31.8202Z" fill="CurrentColor"/>
<path d="M96.2739 31.8202V34.6737H95.9148V33.7298H94.8929L94.219 34.6737H93.7936L94.5173 33.6755C94.2926 33.6141 94.1195 33.5092 93.998 33.3609C93.8765 33.2126 93.8157 33.0245 93.8157 32.7967C93.8157 32.4784 93.9262 32.2361 94.1472 32.0698C94.3681 31.9034 94.6701 31.8202 95.0531 31.8202H96.2739ZM94.2134 32.8076C94.2134 33.2307 94.4878 33.4423 95.0365 33.4423H95.9148V32.162H95.0641C94.497 32.162 94.2134 32.3772 94.2134 32.8076Z" fill="CurrentColor"/>
<path d="M101.445 31.8202V34.6737H101.053V32.162H99.2302V34.6737H98.838V31.8202H101.445Z" fill="CurrentColor"/>
<path d="M103.759 34.7008C103.479 34.7008 103.227 34.6394 103.002 34.5164C102.778 34.3898 102.601 34.2162 102.472 33.9956C102.343 33.775 102.279 33.5254 102.279 33.247C102.279 32.9685 102.343 32.7189 102.472 32.4983C102.601 32.2777 102.778 32.1059 103.002 31.983C103.227 31.86 103.479 31.7985 103.759 31.7985C104.039 31.7985 104.291 31.86 104.516 31.983C104.74 32.1059 104.915 32.2777 105.041 32.4983C105.169 32.7189 105.234 32.9685 105.234 33.247C105.234 33.5254 105.169 33.775 105.041 33.9956C104.915 34.2162 104.74 34.3898 104.516 34.5164C104.291 34.6394 104.039 34.7008 103.759 34.7008ZM103.759 34.3591C103.965 34.3591 104.149 34.3139 104.311 34.2235C104.477 34.1294 104.606 33.9974 104.698 33.8274C104.79 33.6575 104.836 33.464 104.836 33.247C104.836 33.03 104.79 32.8365 104.698 32.6665C104.606 32.4965 104.477 32.3663 104.311 32.2759C104.149 32.1819 103.965 32.1349 103.759 32.1349C103.553 32.1349 103.367 32.1819 103.201 32.2759C103.039 32.3663 102.91 32.4965 102.814 32.6665C102.722 32.8365 102.676 33.03 102.676 33.247C102.676 33.464 102.722 33.6575 102.814 33.8274C102.91 33.9974 103.039 34.1294 103.201 34.2235C103.367 34.3139 103.553 34.3591 103.759 34.3591Z" fill="CurrentColor"/>
<path d="M107.787 34.6737L106.865 33.4802L105.936 34.6737H105.495L106.644 33.209L105.55 31.8202H105.992L106.865 32.9377L107.737 31.8202H108.168L107.074 33.209L108.234 34.6737H107.787Z" fill="CurrentColor"/>
<path d="M109.974 34.7008C109.694 34.7008 109.441 34.6394 109.217 34.5164C108.992 34.3898 108.815 34.2162 108.686 33.9956C108.558 33.775 108.493 33.5254 108.493 33.247C108.493 32.9685 108.558 32.7189 108.686 32.4983C108.815 32.2777 108.992 32.1059 109.217 31.983C109.441 31.86 109.694 31.7985 109.974 31.7985C110.253 31.7985 110.506 31.86 110.73 31.983C110.955 32.1059 111.13 32.2777 111.255 32.4983C111.384 32.7189 111.448 32.9685 111.448 33.247C111.448 33.5254 111.384 33.775 111.255 33.9956C111.13 34.2162 110.955 34.3898 110.73 34.5164C110.506 34.6394 110.253 34.7008 109.974 34.7008ZM109.974 34.3591C110.18 34.3591 110.364 34.3139 110.526 34.2235C110.692 34.1294 110.821 33.9974 110.913 33.8274C111.005 33.6575 111.051 33.464 111.051 33.247C111.051 33.03 111.005 32.8365 110.913 32.6665C110.821 32.4965 110.692 32.3663 110.526 32.2759C110.364 32.1819 110.18 32.1349 109.974 32.1349C109.767 32.1349 109.581 32.1819 109.416 32.2759C109.254 32.3663 109.125 32.4965 109.029 32.6665C108.937 32.8365 108.891 33.03 108.891 33.247C108.891 33.464 108.937 33.6575 109.029 33.8274C109.125 33.9974 109.254 34.1294 109.416 34.2235C109.581 34.3139 109.767 34.3591 109.974 34.3591Z" fill="CurrentColor"/>
<path d="M115.104 34.3374V35.3627H114.734V34.6737H112.132V35.3627H111.762V34.3374H111.928C112.123 34.3265 112.256 34.1855 112.326 33.9142C112.396 33.643 112.444 33.2632 112.469 32.775L112.508 31.8202H114.651V34.3374H115.104ZM112.828 32.7967C112.81 33.2018 112.775 33.5363 112.723 33.8003C112.672 34.0607 112.58 34.2397 112.447 34.3374H114.259V32.162H112.862L112.828 32.7967Z" fill="CurrentColor"/>
<path d="M117.067 34.7008C116.788 34.7008 116.535 34.6394 116.311 34.5164C116.086 34.3898 115.909 34.2162 115.78 33.9956C115.651 33.775 115.587 33.5254 115.587 33.247C115.587 32.9685 115.651 32.7189 115.78 32.4983C115.909 32.2777 116.086 32.1059 116.311 31.983C116.535 31.86 116.788 31.7985 117.067 31.7985C117.347 31.7985 117.6 31.86 117.824 31.983C118.049 32.1059 118.224 32.2777 118.349 32.4983C118.478 32.7189 118.542 32.9685 118.542 33.247C118.542 33.5254 118.478 33.775 118.349 33.9956C118.224 34.2162 118.049 34.3898 117.824 34.5164C117.6 34.6394 117.347 34.7008 117.067 34.7008ZM117.067 34.3591C117.274 34.3591 117.458 34.3139 117.62 34.2235C117.786 34.1294 117.914 33.9974 118.006 33.8274C118.099 33.6575 118.145 33.464 118.145 33.247C118.145 33.03 118.099 32.8365 118.006 32.6665C117.914 32.4965 117.786 32.3663 117.62 32.2759C117.458 32.1819 117.274 32.1349 117.067 32.1349C116.861 32.1349 116.675 32.1819 116.509 32.2759C116.347 32.3663 116.219 32.4965 116.123 32.6665C116.031 32.8365 115.985 33.03 115.985 33.247C115.985 33.464 116.031 33.6575 116.123 33.8274C116.219 33.9974 116.347 34.1294 116.509 34.2235C116.675 34.3139 116.861 34.3591 117.067 34.3591Z" fill="CurrentColor"/>
<path d="M121.231 33.1981C121.625 33.2886 121.822 33.5218 121.822 33.898C121.822 34.1475 121.728 34.3392 121.54 34.473C121.353 34.6068 121.073 34.6737 120.701 34.6737H119.381V31.8202H120.662C120.994 31.8202 121.253 31.8835 121.441 32.0101C121.629 32.1367 121.723 32.3175 121.723 32.5526C121.723 32.7081 121.679 32.8419 121.59 32.954C121.505 33.0625 121.386 33.1439 121.231 33.1981ZM119.762 33.0896H120.635C120.859 33.0896 121.03 33.0481 121.148 32.9649C121.27 32.8817 121.331 32.7605 121.331 32.6014C121.331 32.4423 121.27 32.3229 121.148 32.2434C121.03 32.1638 120.859 32.124 120.635 32.124H119.762V33.0896ZM120.684 34.3699C120.935 34.3699 121.122 34.3301 121.248 34.2506C121.373 34.171 121.436 34.0462 121.436 33.8763C121.436 33.7063 121.378 33.5815 121.264 33.5019C121.15 33.4188 120.97 33.3772 120.723 33.3772H119.762V34.3699H120.684Z" fill="CurrentColor"/>
<path d="M126.038 33.1981C126.432 33.2886 126.629 33.5218 126.629 33.898C126.629 34.1475 126.535 34.3392 126.347 34.473C126.159 34.6068 125.879 34.6737 125.507 34.6737H124.187V31.8202H125.469C125.8 31.8202 126.06 31.8835 126.248 32.0101C126.435 32.1367 126.529 32.3175 126.529 32.5526C126.529 32.7081 126.485 32.8419 126.397 32.954C126.312 33.0625 126.192 33.1439 126.038 33.1981ZM124.568 33.0896H125.441C125.666 33.0896 125.837 33.0481 125.955 32.9649C126.076 32.8817 126.137 32.7605 126.137 32.6014C126.137 32.4423 126.076 32.3229 125.955 32.2434C125.837 32.1638 125.666 32.124 125.441 32.124H124.568V33.0896ZM125.491 34.3699C125.741 34.3699 125.929 34.3301 126.054 34.2506C126.179 34.171 126.242 34.0462 126.242 33.8763C126.242 33.7063 126.185 33.5815 126.071 33.5019C125.957 33.4188 125.776 33.3772 125.529 33.3772H124.568V34.3699H125.491Z" fill="CurrentColor"/>
<path d="M131.049 32.162H129.386V34.6737H128.994V31.8202H131.049V32.162Z" fill="CurrentColor"/>
<path d="M132.679 34.7008C132.399 34.7008 132.147 34.6394 131.923 34.5164C131.698 34.3898 131.521 34.2162 131.392 33.9956C131.263 33.775 131.199 33.5254 131.199 33.247C131.199 32.9685 131.263 32.7189 131.392 32.4983C131.521 32.2777 131.698 32.1059 131.923 31.983C132.147 31.86 132.399 31.7985 132.679 31.7985C132.959 31.7985 133.211 31.86 133.436 31.983C133.661 32.1059 133.836 32.2777 133.961 32.4983C134.09 32.7189 134.154 32.9685 134.154 33.247C134.154 33.5254 134.09 33.775 133.961 33.9956C133.836 34.2162 133.661 34.3898 133.436 34.5164C133.211 34.6394 132.959 34.7008 132.679 34.7008ZM132.679 34.3591C132.886 34.3591 133.07 34.3139 133.232 34.2235C133.397 34.1294 133.526 33.9974 133.618 33.8274C133.71 33.6575 133.757 33.464 133.757 33.247C133.757 33.03 133.71 32.8365 133.618 32.6665C133.526 32.4965 133.397 32.3663 133.232 32.2759C133.07 32.1819 132.886 32.1349 132.679 32.1349C132.473 32.1349 132.287 32.1819 132.121 32.2759C131.959 32.3663 131.83 32.4965 131.735 32.6665C131.643 32.8365 131.597 33.03 131.597 33.247C131.597 33.464 131.643 33.6575 131.735 33.8274C131.83 33.9974 131.959 34.1294 132.121 34.2235C132.287 34.3139 132.473 34.3591 132.679 34.3591Z" fill="CurrentColor"/>
<path d="M136.49 31.7985C136.762 31.7985 137.009 31.86 137.23 31.983C137.451 32.1023 137.624 32.2723 137.749 32.4929C137.874 32.7135 137.937 32.9649 137.937 33.247C137.937 33.5327 137.874 33.7858 137.749 34.0065C137.624 34.2271 137.451 34.3989 137.23 34.5218C137.012 34.6412 136.766 34.7008 136.49 34.7008C136.254 34.7008 136.04 34.6538 135.849 34.5598C135.661 34.4622 135.506 34.3211 135.385 34.1367V35.7262H134.992V31.8202H135.368V32.3844C135.486 32.1963 135.641 32.0517 135.832 31.9504C136.027 31.8492 136.246 31.7985 136.49 31.7985ZM136.462 34.3591C136.664 34.3591 136.849 34.3139 137.014 34.2235C137.18 34.1294 137.309 33.9974 137.401 33.8274C137.497 33.6575 137.545 33.464 137.545 33.247C137.545 33.03 137.497 32.8383 137.401 32.6719C137.309 32.5019 137.18 32.3699 137.014 32.2759C136.849 32.1819 136.664 32.1349 136.462 32.1349C136.256 32.1349 136.07 32.1819 135.904 32.2759C135.742 32.3699 135.613 32.5019 135.517 32.6719C135.425 32.8383 135.379 33.03 135.379 33.247C135.379 33.464 135.425 33.6575 135.517 33.8274C135.613 33.9974 135.742 34.1294 135.904 34.2235C136.07 34.3139 136.256 34.3591 136.462 34.3591Z" fill="CurrentColor"/>
<path d="M140 32.8293C140.365 32.8329 140.643 32.9124 140.834 33.0679C141.026 33.2235 141.122 33.4477 141.122 33.7406C141.122 34.0444 141.019 34.2777 140.812 34.4404C140.606 34.6032 140.311 34.6828 139.928 34.6791L138.779 34.6737V31.8202H139.172V32.8184L140 32.8293ZM141.608 31.8202H142V34.6737H141.608V31.8202ZM139.906 34.3862C140.175 34.3898 140.378 34.3374 140.514 34.2289C140.654 34.1168 140.724 33.954 140.724 33.7406C140.724 33.5309 140.656 33.3754 140.52 33.2741C140.383 33.1728 140.179 33.1204 139.906 33.1168L139.172 33.1059V34.3754L139.906 34.3862Z" fill="CurrentColor"/>
</g>

</g></symbol><symbol id="moon-icon" viewBox="0 0 12 12"><g fill="none">
<g clip-path="url(#clip0_702_629)">
<path d="M11.1966 6.75379C11.0851 6.72581 10.9736 6.75379 10.876 6.82374C10.5135 7.13153 10.0953 7.38335 9.6352 7.55123C9.20301 7.71912 8.72901 7.80306 8.22712 7.80306C7.09786 7.80306 6.0662 7.34138 5.32731 6.5999C4.58841 5.85842 4.12835 4.82314 4.12835 3.68994C4.12835 3.21427 4.212 2.75259 4.35141 2.33289C4.50477 1.8852 4.72783 1.47949 5.0206 1.12973C5.14607 0.975839 5.11819 0.751995 4.96483 0.626083C4.86724 0.556132 4.75571 0.528152 4.64418 0.556132C3.45916 0.877907 2.4275 1.59141 1.6886 2.54274C0.977593 3.48008 0.54541 4.64127 0.54541 5.91438C0.54541 7.43931 1.15883 8.82434 2.16261 9.83164C3.16639 10.8389 4.54659 11.4545 6.0662 11.4545C7.34881 11.4545 8.53383 11.0068 9.48184 10.2653C10.4438 9.50986 11.1409 8.43262 11.4336 7.20148C11.5033 6.99163 11.3918 6.79576 11.1966 6.75379ZM9.0636 9.67774C8.255 10.3213 7.22334 10.713 6.09408 10.713C4.76965 10.713 3.57069 10.1674 2.70633 9.30001C1.84196 8.43262 1.29825 7.22946 1.29825 5.90039C1.29825 4.79516 1.66072 3.78787 2.28808 2.97644C2.72027 2.41683 3.26398 1.95515 3.89134 1.63338C3.82164 1.78727 3.75193 1.94116 3.69617 2.10904C3.51493 2.61269 3.43128 3.14432 3.43128 3.70393C3.43128 5.033 3.97499 6.25015 4.83936 7.11754C5.70373 7.98493 6.91663 8.53055 8.24106 8.53055C8.8266 8.53055 9.38425 8.43262 9.90008 8.23675C10.0813 8.1668 10.2626 8.09685 10.4299 8.01291C10.0953 8.65646 9.6352 9.23006 9.0636 9.67774Z" fill="white"/>
</g>

</g></symbol><symbol id="night-icon" viewBox="0 0 20 20"><g fill="none">
<path d="M17.6218 11.1056C17.4582 11.0646 17.2946 11.1056 17.1515 11.2082C16.6199 11.6596 16.0065 12.029 15.3317 12.2752C14.6978 12.5214 14.0026 12.6445 13.2665 12.6445C11.6103 12.6445 10.0972 11.9674 9.01345 10.8799C7.92974 9.79241 7.25498 8.27401 7.25498 6.61197C7.25498 5.91433 7.37766 5.2372 7.58213 4.62163C7.80706 3.96503 8.13421 3.36998 8.56361 2.857C8.74763 2.63129 8.70674 2.30299 8.48182 2.11832C8.33869 2.01573 8.17511 1.97469 8.01153 2.01573C6.2735 2.48766 4.7604 3.53413 3.67668 4.92942C2.63387 6.30419 2 8.00726 2 9.87449C2 12.1111 2.89968 14.1424 4.3719 15.6198C5.84411 17.0972 7.8684 18 10.0972 18C11.9783 18 13.7163 17.3434 15.1068 16.2559C16.5176 15.1479 17.54 13.5679 17.9694 11.7622C18.0716 11.4544 17.9081 11.1672 17.6218 11.1056ZM14.4933 15.3941C13.3074 16.338 11.7943 16.9125 10.1381 16.9125C8.19556 16.9125 6.43708 16.1123 5.16934 14.8401C3.90161 13.5679 3.10416 11.8033 3.10416 9.85397C3.10416 8.23297 3.63579 6.75561 4.55592 5.56551C5.18979 4.74475 5.98724 4.06762 6.90737 3.59569C6.80513 3.82139 6.7029 4.0471 6.62111 4.29333C6.35529 5.03201 6.23261 5.81173 6.23261 6.63249C6.23261 8.58179 7.03006 10.3669 8.29779 11.6391C9.56553 12.9113 11.3445 13.7115 13.287 13.7115C14.1457 13.7115 14.9636 13.5679 15.7202 13.2806C15.986 13.178 16.2518 13.0754 16.4972 12.9523C16.0065 13.8962 15.3317 14.7375 14.4933 15.3941Z" fill="white"/>
</g></symbol><symbol id="ok-logo" viewBox="0 0 30 30"><g fill="none">
<rect x="0.5" y="0.5" width="29" height="29" stroke="#2D383F" stroke-opacity="0.2"/>
<path d="M14.5 9.42035C15.4159 9.42035 16.1607 10.1874 16.1607 11.1305C16.1607 12.0708 15.4159 12.8378 14.5 12.8378C13.5841 12.8378 12.8393 12.0708 12.8393 11.1305C12.8393 10.1874 13.5841 9.42035 14.5 9.42035ZM14.5 15.2582C16.7124 15.2582 18.5111 13.406 18.5111 11.1305C18.5111 8.85219 16.7124 7 14.5 7C12.2876 7 10.4917 8.85219 10.4917 11.1305C10.4917 13.406 12.2876 15.2582 14.5 15.2582ZM16.1221 18.6273C16.9386 18.4342 17.7248 18.1018 18.4504 17.6331C18.9993 17.278 19.1649 16.5308 18.82 15.9655C18.4724 15.3974 17.7497 15.2269 17.1979 15.5848C15.5566 16.6473 13.4434 16.6473 11.7993 15.5848C11.2503 15.2269 10.5248 15.3974 10.18 15.9655C9.83515 16.5308 10.0007 17.278 10.5496 17.6331C11.2752 18.1018 12.0614 18.4342 12.8779 18.6273L10.6351 20.934C10.1772 21.4056 10.1772 22.1726 10.6351 22.6442C10.8669 22.88 11.1648 22.9993 11.4655 22.9993C11.7662 22.9993 12.0669 22.88 12.2986 22.6442L14.5 20.3772L16.7042 22.6442C17.1621 23.1186 17.9042 23.1186 18.3649 22.6442C18.8228 22.1726 18.8228 21.4056 18.3649 20.934L16.1221 18.6273Z" fill="#2D383F"/>
</g></symbol><symbol id="reddit-logo" viewBox="0 0 30 30"><g fill="none">
<rect x="0.5" y="0.5" width="29" height="29" stroke="#2D383F" stroke-opacity="0.2"/>
<path d="M16.3617 7C15.9128 7 15.4915 7.24401 15.2213 7.59589C14.9511 7.94777 14.8021 8.37671 14.6936 8.82877C14.5213 9.55565 14.4681 10.3622 14.4553 11.089C13.1936 11.1789 12.0511 11.5796 11.1021 12.1986C10.717 11.8519 10.2532 11.6592 9.80849 11.6644C9.3021 11.6695 8.82125 11.9033 8.4638 12.3836C7.78082 13.3005 7.85955 14.8005 8.65104 15.6918C8.6021 15.9666 8.56593 16.2491 8.56593 16.5342C8.56593 19.5548 11.4468 22 15 22C18.5532 22 21.4341 19.5522 21.4341 16.5342C21.4341 16.2491 21.3979 15.9666 21.349 15.6918C22.1405 14.8005 22.2192 13.3005 21.5362 12.3836C21.1788 11.9033 20.6979 11.6695 20.1915 11.6644C19.7468 11.6592 19.283 11.8519 18.8979 12.1986C17.9532 11.5822 16.817 11.1815 15.5617 11.089C15.5787 10.4187 15.6234 9.7226 15.7489 9.19863C15.8277 8.86986 15.9213 8.63099 16.0213 8.5C16.1213 8.36901 16.1936 8.31507 16.3617 8.31507C16.7255 8.31507 16.7723 8.44092 16.9915 8.74658C17.1021 8.90068 17.2298 9.09332 17.4341 9.28082C17.6383 9.46832 17.9404 9.63014 18.2681 9.63014V8.31507C18.1766 8.31507 18.1596 8.3125 18.0979 8.25342C18.0362 8.19435 17.9511 8.05822 17.8255 7.88356C17.5745 7.53168 17.0872 7 16.3617 7ZM19.9021 7.12329C19.0553 7.12329 18.3702 7.95034 18.3702 8.9726C18.3702 9.99486 19.0553 10.8219 19.9021 10.8219C20.749 10.8219 21.4341 9.99486 21.4341 8.9726C21.4341 7.95034 20.749 7.12329 19.9021 7.12329ZM19.9021 7.78082C20.4468 7.78082 20.8894 8.31507 20.8894 8.9726C20.8894 9.63014 20.4468 10.1644 19.9021 10.1644C19.3575 10.1644 18.9149 9.63014 18.9149 8.9726C18.9149 8.31507 19.3575 7.78082 19.9021 7.78082ZM15 12.1164C18.0149 12.1164 20.566 14.143 20.566 16.5342C20.566 18.9281 18.0149 20.9521 15 20.9521C11.9851 20.9521 9.43402 18.9281 9.43402 16.5342C9.43402 14.143 11.9851 12.1164 15 12.1164ZM9.82551 12.7123C9.97658 12.7149 10.134 12.756 10.2851 12.8356C9.73828 13.3365 9.30423 13.9118 9.00849 14.5616C8.80423 14.0531 8.85955 13.4187 9.11061 13.0822C9.29359 12.8356 9.54679 12.7098 9.82551 12.7123ZM20.1745 12.7123C20.4532 12.7098 20.7064 12.8356 20.8894 13.0822C21.1405 13.4187 21.1958 14.0531 20.9915 14.5616C20.6958 13.9118 20.2617 13.3365 19.7149 12.8356C19.866 12.756 20.0234 12.7149 20.1745 12.7123ZM12.8213 14.3562C12.2766 14.3562 11.834 14.8904 11.834 15.5479C11.834 16.2055 12.2766 16.7397 12.8213 16.7397C13.366 16.7397 13.8085 16.2055 13.8085 15.5479C13.8085 14.8904 13.366 14.3562 12.8213 14.3562ZM17.1787 14.3562C16.6341 14.3562 16.1915 14.8904 16.1915 15.5479C16.1915 16.2055 16.6341 16.7397 17.1787 16.7397C17.7234 16.7397 18.166 16.2055 18.166 15.5479C18.166 14.8904 17.7234 14.3562 17.1787 14.3562ZM12.2936 18.4041C12.6404 19.2697 13.7128 20.1096 15 20.1096C16.2872 20.1096 17.3766 19.2697 17.7234 18.4041C17.0936 18.8947 16.1 19.226 15 19.226C13.9 19.226 12.9234 18.8947 12.2936 18.4041Z" fill="#2D383F"/>
</g></symbol><symbol id="slider-vk-icon" viewBox="0 0 24 24"><g fill="none">
<rect opacity="0.3" x="0.5" y="0.5" width="23" height="23" stroke="#2D383F"/>
<path d="M18.9258 15.2259C18.9088 15.1893 18.893 15.1589 18.8783 15.1346C18.6354 14.6964 18.1712 14.1587 17.4861 13.5211L17.4716 13.5065L17.4643 13.4993L17.457 13.492H17.4497C17.1387 13.1951 16.9418 12.9954 16.8593 12.8932C16.7084 12.6985 16.6746 12.5015 16.7571 12.3018C16.8154 12.1509 17.0342 11.8323 17.4131 11.3455C17.6125 11.0876 17.7703 10.8808 17.8869 10.725C18.7276 9.60555 19.0921 8.8902 18.9803 8.57868L18.9369 8.50588C18.9077 8.46205 18.8324 8.42196 18.711 8.38539C18.5894 8.3489 18.434 8.34287 18.2444 8.36718L16.1452 8.38171C16.1111 8.36964 16.0626 8.37076 15.9993 8.38539C15.9361 8.40002 15.9045 8.40736 15.9045 8.40736L15.868 8.42564L15.839 8.4476C15.8147 8.46213 15.788 8.48767 15.7588 8.52419C15.7297 8.56057 15.7055 8.60328 15.6861 8.65194C15.4575 9.24084 15.1977 9.78838 14.906 10.2945C14.7262 10.5963 14.5611 10.8579 14.4103 11.0793C14.2597 11.3007 14.1333 11.4639 14.0313 11.5684C13.9292 11.6731 13.837 11.7569 13.7543 11.8202C13.6716 11.8836 13.6085 11.9104 13.5649 11.9006C13.5211 11.8908 13.4798 11.8811 13.4408 11.8714C13.3728 11.8275 13.3181 11.7679 13.2769 11.6925C13.2355 11.6171 13.2076 11.5221 13.193 11.4077C13.1785 11.2933 13.17 11.1949 13.1675 11.1121C13.1652 11.0294 13.1663 10.9125 13.1712 10.7616C13.1763 10.6107 13.1785 10.5085 13.1785 10.455C13.1785 10.27 13.1821 10.0693 13.1894 9.85269C13.1967 9.63611 13.2027 9.46451 13.2076 9.33809C13.2126 9.21154 13.2149 9.07766 13.2149 8.93651C13.2149 8.79536 13.2063 8.68467 13.1894 8.60432C13.1726 8.52408 13.1469 8.4462 13.113 8.37069C13.0789 8.29526 13.0291 8.2369 12.9636 8.19548C12.898 8.15411 12.8165 8.12128 12.7194 8.09688C12.4618 8.0385 12.1338 8.00692 11.7353 8.00202C10.8315 7.9923 10.2507 8.05075 9.99317 8.1773C9.89112 8.23077 9.79878 8.30382 9.71621 8.39623C9.62872 8.50335 9.61651 8.5618 9.67968 8.57141C9.97129 8.61517 10.1777 8.71982 10.2992 8.88529L10.343 8.97297C10.3771 9.03623 10.4111 9.14823 10.4451 9.30881C10.4791 9.46939 10.501 9.64703 10.5107 9.84162C10.5349 10.197 10.5349 10.5012 10.5107 10.7542C10.4863 11.0073 10.4634 11.2044 10.4414 11.3456C10.4195 11.4867 10.3867 11.6011 10.343 11.6887C10.2992 11.7763 10.2701 11.8298 10.2555 11.8492C10.2409 11.8687 10.2288 11.8809 10.2191 11.8857C10.156 11.91 10.0903 11.9223 10.0223 11.9223C9.95418 11.9223 9.87162 11.8882 9.77445 11.82C9.6773 11.7519 9.57648 11.6582 9.47198 11.539C9.36749 11.4197 9.24964 11.253 9.11838 11.0389C8.98723 10.8247 8.85115 10.5717 8.71023 10.2797L8.59363 10.0679C8.52074 9.93165 8.42117 9.73328 8.29481 9.47295C8.16839 9.21251 8.05664 8.96059 7.95949 8.71724C7.92066 8.61504 7.86232 8.53723 7.78458 8.48368L7.7481 8.46172C7.72385 8.44228 7.68491 8.42165 7.6315 8.39966C7.57801 8.37769 7.5222 8.36194 7.46384 8.35225L5.4666 8.36678C5.26251 8.36678 5.12403 8.41308 5.05111 8.50557L5.02193 8.54932C5.00735 8.57369 5 8.61261 5 8.66618C5 8.71972 5.01458 8.78544 5.04376 8.86325C5.33532 9.54956 5.65239 10.2114 5.99496 10.849C6.33753 11.4866 6.63522 12.0002 6.88784 12.3893C7.14052 12.7787 7.39807 13.1462 7.6605 13.4917C7.92293 13.8373 8.09665 14.0587 8.18164 14.156C8.26673 14.2535 8.33357 14.3264 8.38216 14.375L8.56442 14.5502C8.68104 14.667 8.8523 14.807 9.07828 14.97C9.3043 15.1331 9.55453 15.2937 9.82908 15.452C10.1037 15.61 10.4232 15.739 10.7877 15.8387C11.1521 15.9386 11.5068 15.9787 11.8519 15.9593H12.6902C12.8602 15.9446 12.989 15.8911 13.0765 15.7987L13.1055 15.7621C13.125 15.733 13.1433 15.6879 13.1601 15.6272C13.1772 15.5663 13.1857 15.4993 13.1857 15.4264C13.1807 15.2172 13.1966 15.0286 13.2329 14.8607C13.2693 14.6929 13.3107 14.5663 13.357 14.4811C13.4033 14.3959 13.4555 14.3241 13.5136 14.2658C13.5719 14.2075 13.6134 14.1721 13.6378 14.1599C13.662 14.1477 13.6813 14.1394 13.6959 14.1344C13.8125 14.0955 13.9498 14.1332 14.1079 14.2476C14.2658 14.362 14.414 14.5032 14.5525 14.6711C14.691 14.8391 14.8575 15.0276 15.0518 15.2368C15.2463 15.4461 15.4163 15.6017 15.562 15.7041L15.7078 15.7917C15.8051 15.8501 15.9314 15.9037 16.087 15.9523C16.2422 16.001 16.3782 16.0131 16.495 15.9888L18.361 15.9597C18.5456 15.9597 18.6892 15.9291 18.7911 15.8683C18.8931 15.8075 18.9538 15.7405 18.9733 15.6676C18.9928 15.5946 18.9939 15.5118 18.977 15.4192C18.9597 15.3269 18.9427 15.2623 18.9258 15.2259Z" fill="#2D383F"/>
</g></symbol><symbol id="tours-arrow-right" viewBox="0 0 9 14"><g fill="none">
<path d="M1.5 13L7.5 7L1.5 1" stroke="#2D383F" stroke-width="2"/>
</g></symbol><symbol id="vk-logo" viewBox="0 0 30 30"><g fill="none">
<rect x="0.5" y="0.5" width="29" height="29" stroke="#2D383F" stroke-opacity="0.2"/>
<path d="M22.8574 19.0274C22.8144 18.9564 22.5484 18.3866 21.2683 17.2153C19.9282 15.9888 20.1082 16.188 21.7223 14.0673C22.7054 12.7757 23.0984 11.987 22.9754 11.6498C22.8584 11.3284 22.1353 11.4132 22.1353 11.4132L19.7312 11.427C19.7312 11.427 19.5531 11.4033 19.4201 11.4812C19.2911 11.5581 19.2081 11.7356 19.2081 11.7356C19.2081 11.7356 18.8271 12.7353 18.3191 13.5852C17.248 15.3785 16.8189 15.4732 16.6439 15.3618C16.2369 15.1025 16.3389 14.3187 16.3389 13.7626C16.3389 12.0245 16.6059 11.2998 15.8179 11.1125C15.5559 11.0504 15.3638 11.009 14.6948 11.0021C13.8367 10.9932 13.1097 11.005 12.6986 11.2032C12.4246 11.3353 12.2136 11.6301 12.3426 11.6468C12.5016 11.6676 12.8617 11.7425 13.0527 11.9988C13.2997 12.3291 13.2907 13.0725 13.2907 13.0725C13.2907 13.0725 13.4327 15.1183 12.9597 15.3726C12.6346 15.5471 12.1896 15.1912 11.2345 13.5635C10.7455 12.7304 10.3755 11.8085 10.3755 11.8085C10.3755 11.8085 10.3045 11.637 10.1775 11.5453C10.0234 11.4339 9.80743 11.3984 9.80743 11.3984L7.52126 11.4122C7.52126 11.4122 7.17824 11.4221 7.05223 11.569C6.94022 11.7001 7.04323 11.9702 7.04323 11.9702C7.04323 11.9702 8.83336 16.0983 10.8595 18.1795C12.7186 20.0873 14.8288 19.9621 14.8288 19.9621H15.7849C15.7849 19.9621 16.0739 19.9305 16.2209 19.7738C16.3569 19.6298 16.3519 19.3597 16.3519 19.3597C16.3519 19.3597 16.3329 18.0948 16.929 17.9084C17.516 17.725 18.2701 19.131 19.0691 19.6722C19.6732 20.0814 20.1322 19.9917 20.1322 19.9917L22.2693 19.9621C22.2693 19.9621 23.3874 19.8941 22.8574 19.0274Z" fill="#2D383F"/>
</g></symbol></svg>