<svg xmlns="http://www.w3.org/2000/svg" xmlns:xlink="http://www.w3.org/1999/xlink"><defs>
<clipPath id="clip0_702_633">
<rect width="12" height="12" fill="white"/>
</clipPath>

<clipPath id="clip0_702_629">
<rect width="12" height="12" fill="white"/>
</clipPath>
</defs><symbol id="3-stars-rating" viewBox="0 0 84 16"><g fill="none">
<path d="M7.63441 11.6911L12.3525 14.3L11.1042 9.37971L15.2688 6.0708L9.77893 5.63889L7.63441 1L5.48992 5.63889L0 6.0708L4.16458 9.37971L2.91634 14.3L7.63441 11.6911Z" fill="white"/>
<path d="M24.6344 11.6911L29.3525 14.3L28.1042 9.37971L32.2688 6.0708L26.7789 5.63889L24.6344 1L22.4899 5.63889L17 6.0708L21.1646 9.37971L19.9163 14.3L24.6344 11.6911Z" fill="white"/>
<path d="M41.6344 11.6911L46.3525 14.3L45.1042 9.37971L49.2688 6.0708L43.7789 5.63889L41.6344 1L39.4899 5.63889L34 6.0708L38.1646 9.37971L36.9163 14.3L41.6344 11.6911Z" fill="white"/>
<path fill-rule="evenodd" clip-rule="evenodd" d="M58.6344 10.5484L61.8153 12.3073L60.976 8.99895L63.6574 6.86844L60.1169 6.58989L58.6344 3.38311L57.152 6.58989L53.6114 6.86844L56.2929 8.99895L55.4536 12.3073L58.6344 10.5484ZM53.9163 14.3L55.1646 9.37971L51 6.0708L56.4899 5.63889L58.6344 1L60.7789 5.63889L66.2688 6.0708L62.1042 9.37971L63.3525 14.3L58.6344 11.6911L53.9163 14.3Z" fill="white"/>
<path fill-rule="evenodd" clip-rule="evenodd" d="M75.6344 10.5484L78.8153 12.3073L77.976 8.99895L80.6574 6.86844L77.1169 6.58989L75.6344 3.38311L74.152 6.58989L70.6114 6.86844L73.2929 8.99895L72.4536 12.3073L75.6344 10.5484ZM70.9163 14.3L72.1646 9.37971L68 6.0708L73.4899 5.63889L75.6344 1L77.7789 5.63889L83.2688 6.0708L79.1042 9.37971L80.3525 14.3L75.6344 11.6911L70.9163 14.3Z" fill="white"/>
</g></symbol><symbol id="4-stars-rating" viewBox="0 0 84 16"><g fill="none">
<path d="M7.63441 11.6911L12.3525 14.3L11.1042 9.37971L15.2688 6.0708L9.77893 5.63889L7.63441 1L5.48992 5.63889L0 6.0708L4.16458 9.37971L2.91634 14.3L7.63441 11.6911Z" fill="white"/>
<path d="M24.6344 11.6911L29.3525 14.3L28.1042 9.37971L32.2688 6.0708L26.7789 5.63889L24.6344 1L22.4899 5.63889L17 6.0708L21.1646 9.37971L19.9163 14.3L24.6344 11.6911Z" fill="white"/>
<path d="M41.6344 11.6911L46.3525 14.3L45.1042 9.37971L49.2688 6.0708L43.7789 5.63889L41.6344 1L39.4899 5.63889L34 6.0708L38.1646 9.37971L36.9163 14.3L41.6344 11.6911Z" fill="white"/>
<path d="M58.6344 11.6911L63.3525 14.3L62.1042 9.37971L66.2688 6.0708L60.7789 5.63889L58.6344 1L56.4899 5.63889L51 6.0708L55.1646 9.37971L53.9163 14.3L58.6344 11.6911Z" fill="white"/>
<path fill-rule="evenodd" clip-rule="evenodd" d="M75.6344 10.5484L78.8153 12.3073L77.976 8.99895L80.6574 6.86844L77.1169 6.58989L75.6344 3.38311L74.152 6.58989L70.6114 6.86844L73.2929 8.99895L72.4536 12.3073L75.6344 10.5484ZM70.9163 14.3L72.1646 9.37971L68 6.0708L73.4899 5.63889L75.6344 1L77.7789 5.63889L83.2688 6.0708L79.1042 9.37971L80.3525 14.3L75.6344 11.6911L70.9163 14.3Z" fill="white"/>
</g></symbol><symbol id="arrow-left" viewBox="0 0 14 9"><g fill="currentColor">
<path d="M0.646446 4.85355C0.451184 4.65829 0.451184 4.34171 0.646446 4.14645L3.82843 0.964466C4.02369 0.769204 4.34027 0.769204 4.53553 0.964466C4.7308 1.15973 4.7308 1.47631 4.53553 1.67157L1.70711 4.5L4.53553 7.32843C4.7308 7.52369 4.7308 7.84027 4.53553 8.03553C4.34027 8.2308 4.02369 8.2308 3.82843 8.03553L0.646446 4.85355ZM14 5H1V4H14V5Z" fill="currentColor"/>
</g></symbol><symbol id="burger-menu" viewBox="0 0 26 26"><g fill="none">
<path d="M0 3.54541H26V5.71534H0V3.54541Z" fill="white"/>
<path d="M0 20.2846H26V22.4545H0V20.2846Z" fill="white"/>
<path d="M0 11.915H16.64V14.0849H0V11.915Z" fill="white"/>
</g></symbol><symbol id="cross-close-icon" viewBox="0 0 26 26"><g fill="none">
<path d="M2.36365 2.36365L13 13M23.6364 23.6364L13 13M13 13L23.6364 2.36365L2.36365 23.6364" stroke="#2D383F" stroke-width="2"/>
</g></symbol><symbol id="day-icon" viewBox="0 0 20 20"><g fill="none">
<path d="M13.545 6.45505C12.6455 5.55558 11.3757 4.97357 9.99999 4.97357C8.62433 4.97357 7.35449 5.52912 6.45502 6.45505C5.55555 7.35451 4.97354 8.62435 4.97354 10C4.97354 11.3757 5.55555 12.6455 6.45502 13.545C7.35449 14.4444 8.62433 15.0265 9.99999 15.0265C11.3757 15.0265 12.6455 14.4709 13.545 13.545C14.4444 12.6455 15.0265 11.3757 15.0265 10C15.0265 8.62435 14.4709 7.35451 13.545 6.45505ZM12.5926 12.5926C11.9312 13.254 11.0053 13.6508 9.99999 13.6508C8.9947 13.6508 8.06878 13.254 7.4074 12.5926C6.74603 11.9312 6.3492 11.0053 6.3492 10C6.3492 8.99472 6.74603 8.0688 7.4074 7.40742C8.06878 6.74605 8.9947 6.34922 9.99999 6.34922C11.0053 6.34922 11.9312 6.74605 12.5926 7.40742C13.254 8.0688 13.6508 8.99472 13.6508 10C13.6508 11.0053 13.254 11.9312 12.5926 12.5926Z" fill="white"/>
<path d="M19.3122 9.3122H17.2751C16.9048 9.3122 16.5873 9.62966 16.5873 10C16.5873 10.3704 16.9048 10.6879 17.2751 10.6879H19.3122C19.6825 10.6879 20 10.3704 20 10C20 9.62966 19.6825 9.3122 19.3122 9.3122Z" fill="white"/>
<path d="M9.99999 16.5873C9.62962 16.5873 9.31216 16.9048 9.31216 17.2751V19.3122C9.31216 19.6825 9.62962 20 9.99999 20C10.3704 20 10.6878 19.6825 10.6878 19.3122V17.2751C10.6878 16.9048 10.3704 16.5873 9.99999 16.5873Z" fill="white"/>
<path d="M17.0635 16.1111L15.6085 14.656C15.3704 14.3915 14.9207 14.3915 14.6561 14.656C14.3916 14.9206 14.3916 15.3439 14.6561 15.6084L16.1111 17.0634C16.3757 17.328 16.799 17.328 17.0635 17.0634C17.3281 16.7989 17.3281 16.3756 17.0635 16.1111Z" fill="white"/>
<path d="M9.99999 0C9.62962 0 9.31216 0.317459 9.31216 0.687829V2.72486C9.31216 3.09523 9.62962 3.41269 9.99999 3.41269C10.3704 3.41269 10.6878 3.09523 10.6878 2.72486V0.687829C10.6878 0.317459 10.3704 0 9.99999 0Z" fill="white"/>
<path d="M17.0899 2.93653C16.8254 2.67198 16.4021 2.67198 16.1376 2.93653L14.6825 4.39155C14.418 4.6561 14.418 5.07938 14.6825 5.34393C14.9206 5.60848 15.3704 5.60848 15.6349 5.34393L17.0899 3.88891C17.3545 3.62436 17.3545 3.20108 17.0899 2.93653Z" fill="white"/>
<path d="M2.72487 9.3122H0.687831C0.31746 9.3122 0 9.62966 0 10C0 10.3704 0.291005 10.6879 0.687831 10.6879H2.72487C3.09524 10.6879 3.4127 10.3704 3.4127 10C3.4127 9.62966 3.09524 9.3122 2.72487 9.3122Z" fill="white"/>
<path d="M5.31746 14.656C5.07937 14.3915 4.62963 14.3915 4.36508 14.656L2.91005 16.1111C2.6455 16.3756 2.6455 16.7989 2.91005 17.0634C3.1746 17.328 3.59788 17.328 3.86243 17.0634L5.31746 15.6084C5.58201 15.3439 5.58201 14.9206 5.31746 14.656Z" fill="white"/>
<path d="M5.31746 4.39155L3.86243 2.93653C3.59788 2.67198 3.1746 2.67198 2.91005 2.93653C2.6455 3.20108 2.6455 3.62436 2.91005 3.88891L4.36508 5.34393C4.62963 5.60848 5.05291 5.60848 5.31746 5.34393C5.58201 5.07938 5.58201 4.6561 5.31746 4.39155Z" fill="white"/>
</g></symbol><symbol id="icon-close" viewBox="0 0 20 20"><g fill="none"><path d="M.293 18.291a1 1 0 101.414 1.414L10 11.413l8.292 8.292a1 1 0 101.414-1.414l-8.292-8.292 8.292-8.292A1 1 0 1018.291.293L9.999 8.585 1.707.293A1 1 0 10.293 1.707L8.585 10 .293 18.291z"/></g></symbol><symbol id="level-icon" viewBox="0 0 12 12"><g fill="none">
<g clip-path="url(#clip0_702_633)">
<path d="M10.909 11.4545H8.94536V0.54541H10.909V11.4545Z" stroke="white" stroke-miterlimit="16" stroke-linecap="round"/>
<path d="M6.98173 11.4545V3.52062H5.01809L5.0181 11.4545H6.98173Z" stroke="white" stroke-miterlimit="16" stroke-linecap="round"/>
<path d="M3.05446 11.4545V6.49582H1.09082V11.4545H3.05446Z" stroke="white" stroke-miterlimit="16" stroke-linecap="round"/>
</g>

</g></symbol><symbol id="location-icon" viewBox="0 0 16 16"><g fill="none">
<path d="M8.49981 2C6.01874 2 4 3.98191 4 6.41796C4 7.05338 4.13247 7.66006 4.39354 8.2213C5.51862 10.6383 7.67571 13.1902 8.31017 13.9146C8.35771 13.9688 8.42701 14 8.49994 14C8.57287 14 8.64217 13.9688 8.6897 13.9146C9.32392 13.1903 11.481 10.6386 12.6065 8.2213C12.8677 7.66006 13 7.05338 13 6.41796C12.9998 3.98191 10.981 2 8.49981 2ZM8.49981 8.71267C7.21099 8.71267 6.16234 7.68315 6.16234 6.41784C6.16234 5.15241 7.21099 4.12289 8.49981 4.12289C9.78864 4.12289 10.8373 5.15241 10.8373 6.41784C10.8374 7.68315 9.78876 8.71267 8.49981 8.71267Z" fill="white"/>
</g></symbol><symbol id="logotype" viewBox="0 0 205 62"><g fill="CurrentColor">
<path d="M47.7314 37.2445L51.4995 33.359L55.7857 37.2445H63.1334L51.4524 26.0044L39.8656 37.2445H47.7314Z" fill="CurrentColor"/>
<path d="M58.5178 19.2048L52.9599 24.7555L56.6337 28.4559L58.5178 26.6057L68.8328 36.6894C66.4778 42.8414 60.4489 47.2357 53.3367 47.2357C44.1991 47.2357 36.8043 39.9736 36.8043 31C36.8514 22.0264 44.2462 14.7643 53.3838 14.7643C61.4851 14.7643 68.2676 20.5463 69.6336 28.0859L74.6262 33.2665C74.7204 32.5264 74.7675 31.7401 74.7675 31C74.7675 25.4031 72.5538 20.13 68.5031 16.152C64.4525 12.174 59.083 10 53.3838 10C47.6375 10 42.3151 12.174 38.2644 16.152C34.2137 20.13 32 25.3568 32 31C32 36.6432 34.2137 41.87 38.2644 45.848C42.3151 49.826 47.6846 52 53.3838 52C59.083 52 64.4525 49.826 68.5031 45.848C70.9995 43.3965 72.7893 40.4824 73.7784 37.2907C73.9668 36.7357 74.1081 36.1344 74.2494 35.5793L69.9162 31.0925L58.5178 19.2048Z" fill="CurrentColor"/>
<path d="M92.4115 23.4945H95.5561L93.8408 31.9634H99.1453L98.6371 34.4121H90.1881L92.4115 23.4945Z" fill="CurrentColor"/>
<path d="M102.105 23.4945H105.249L103.026 34.4121H99.8815L102.105 23.4945Z" fill="CurrentColor"/>
<path d="M110.139 25.8808L109.647 28.2826H114.554L114.062 30.6689H109.17L108.408 34.4121H105.263L107.487 23.4945H116.19L115.697 25.8808H110.139Z" fill="CurrentColor"/>
<path d="M120.281 25.8808L119.916 27.7212H124.855L124.394 30.0295H119.439L119.042 32.0258H124.871L124.363 34.4121H115.453L117.676 23.4945H126.38L125.887 25.8808H120.281Z" fill="CurrentColor"/>
<path d="M130.205 25.9431H126.79L127.299 23.4945H137.256L136.748 25.9431H133.35L131.618 34.4121H128.474L130.205 25.9431Z" fill="CurrentColor"/>
<path d="M142.053 34.6305C140.93 34.6305 139.951 34.4277 139.115 34.0222C138.289 33.6167 137.648 33.05 137.193 32.3222C136.748 31.5943 136.526 30.7625 136.526 29.8267C136.526 28.579 136.817 27.456 137.399 26.4578C137.992 25.4596 138.813 24.6798 139.861 24.1183C140.92 23.5569 142.122 23.2761 143.466 23.2761C144.588 23.2761 145.563 23.4789 146.388 23.8844C147.225 24.2899 147.865 24.8566 148.31 25.5844C148.765 26.3123 148.993 27.1441 148.993 28.0799C148.993 29.3276 148.697 30.4506 148.104 31.4488C147.521 32.4469 146.701 33.2268 145.642 33.7882C144.594 34.3497 143.397 34.6305 142.053 34.6305ZM142.323 32.0726C143.021 32.0726 143.636 31.9011 144.165 31.5579C144.694 31.2148 145.102 30.7573 145.388 30.1854C145.674 29.6032 145.817 28.9637 145.817 28.267C145.817 27.5288 145.584 26.9413 145.118 26.5046C144.663 26.0575 144.022 25.834 143.196 25.834C142.497 25.834 141.883 26.0055 141.354 26.3487C140.825 26.6918 140.417 27.1545 140.131 27.7368C139.845 28.3086 139.702 28.9429 139.702 29.6395C139.702 30.3778 139.93 30.9705 140.385 31.4176C140.851 31.8543 141.497 32.0726 142.323 32.0726Z" fill="CurrentColor"/>
<path d="M154.896 34.6305C153.933 34.6305 153.102 34.4745 152.403 34.1626C151.704 33.8402 151.169 33.3827 150.799 32.7901C150.428 32.1974 150.243 31.5007 150.243 30.7001C150.243 30.3674 150.285 29.9827 150.37 29.546L151.609 23.4945H154.753L153.53 29.4992C153.467 29.8111 153.435 30.097 153.435 30.357C153.435 31.5007 154.049 32.0726 155.277 32.0726C155.944 32.0726 156.469 31.8751 156.85 31.4799C157.241 31.0744 157.533 30.4142 157.723 29.4992L158.946 23.4945H162.043L160.788 29.6863C160.111 32.9824 158.147 34.6305 154.896 34.6305Z" fill="CurrentColor"/>
<path d="M173.416 26.9725C173.416 27.9707 173.146 28.8337 172.606 29.5616C172.066 30.279 171.309 30.8041 170.335 31.1368L172.225 34.4121H168.938L167.286 31.5111H165.698L165.11 34.4121H161.966L164.189 23.4945H168.938C170.357 23.4945 171.458 23.8012 172.241 24.4147C173.025 25.0281 173.416 25.8808 173.416 26.9725ZM170.24 27.2689C170.24 26.8218 170.087 26.489 169.779 26.2707C169.472 26.0419 169.044 25.9275 168.493 25.9275H166.841L166.174 29.1249H168.048C168.747 29.1249 169.287 28.9637 169.668 28.6414C170.049 28.319 170.24 27.8615 170.24 27.2689Z" fill="CurrentColor"/>
<path d="M92.2817 44.7063C91.8987 44.7063 91.5507 44.6231 91.2376 44.4567C90.9283 44.2867 90.6852 44.0553 90.5085 43.7623C90.3354 43.4694 90.2488 43.1403 90.2488 42.775C90.2488 42.4097 90.3354 42.0806 90.5085 41.7877C90.6852 41.4947 90.9283 41.2651 91.2376 41.0987C91.5507 40.9287 91.8987 40.8437 92.2817 40.8437C92.6647 40.8437 93.009 40.9269 93.3147 41.0933C93.624 41.2596 93.8671 41.4911 94.0439 41.7877C94.2206 42.0806 94.309 42.4097 94.309 42.775C94.309 43.1403 94.2206 43.4712 94.0439 43.7678C93.8671 44.0607 93.624 44.2904 93.3147 44.4567C93.009 44.6231 92.6647 44.7063 92.2817 44.7063ZM92.2817 44.3482C92.5873 44.3482 92.8635 44.2813 93.1103 44.1475C93.357 44.0101 93.5504 43.822 93.6903 43.5833C93.8303 43.341 93.9002 43.0716 93.9002 42.775C93.9002 42.4784 93.8303 42.2108 93.6903 41.9721C93.5504 41.7298 93.357 41.5417 93.1103 41.4079C92.8635 41.2705 92.5873 41.2018 92.2817 41.2018C91.976 41.2018 91.698 41.2705 91.4475 41.4079C91.2008 41.5417 91.0056 41.7298 90.862 41.9721C90.7221 42.2108 90.6521 42.4784 90.6521 42.775C90.6521 43.0716 90.7221 43.341 90.862 43.5833C91.0056 43.822 91.2008 44.0101 91.4475 44.1475C91.698 44.2813 91.976 44.3482 92.2817 44.3482Z" fill="CurrentColor"/>
<path d="M96.6876 41.7985C96.9601 41.7985 97.2068 41.86 97.4278 41.983C97.6488 42.1023 97.8219 42.2723 97.9471 42.4929C98.0723 42.7135 98.1349 42.9649 98.1349 43.247C98.1349 43.5327 98.0723 43.7858 97.9471 44.0065C97.8219 44.2271 97.6488 44.3989 97.4278 44.5218C97.2105 44.6412 96.9638 44.7008 96.6876 44.7008C96.4519 44.7008 96.2383 44.6538 96.0468 44.5598C95.859 44.4622 95.7043 44.3211 95.5828 44.1367V45.7262H95.1906V41.8202H95.5662V42.3844C95.684 42.1963 95.8387 42.0517 96.0302 41.9504C96.2254 41.8492 96.4445 41.7985 96.6876 41.7985ZM96.66 44.3591C96.8625 44.3591 97.0466 44.3139 97.2124 44.2235C97.3781 44.1294 97.507 43.9974 97.5991 43.8274C97.6948 43.6575 97.7427 43.464 97.7427 43.247C97.7427 43.03 97.6948 42.8383 97.5991 42.6719C97.507 42.5019 97.3781 42.3699 97.2124 42.2759C97.0466 42.1819 96.8625 42.1349 96.66 42.1349C96.4537 42.1349 96.2678 42.1819 96.102 42.2759C95.94 42.3699 95.8111 42.5019 95.7154 42.6719C95.6233 42.8383 95.5772 43.03 95.5772 43.247C95.5772 43.464 95.6233 43.6575 95.7154 43.8274C95.8111 43.9974 95.94 44.1294 96.102 44.2235C96.2678 44.3139 96.4537 44.3591 96.66 44.3591Z" fill="CurrentColor"/>
<path d="M101.033 42.162H99.3698V44.6737H98.9776V41.8202H101.033V42.162Z" fill="CurrentColor"/>
<path d="M102.599 41.7985C102.979 41.7985 103.269 41.8925 103.472 42.0806C103.675 42.2651 103.776 42.5399 103.776 42.9052V44.6737H103.4V44.2289C103.312 44.3772 103.181 44.4929 103.008 44.5761C102.839 44.6593 102.636 44.7008 102.4 44.7008C102.076 44.7008 101.818 44.6249 101.627 44.473C101.435 44.3211 101.34 44.1204 101.34 43.8708C101.34 43.6285 101.428 43.4332 101.605 43.2849C101.785 43.1367 102.071 43.0625 102.461 43.0625H103.384V42.8889C103.384 42.643 103.314 42.4567 103.174 42.3302C103.034 42.2 102.829 42.1349 102.561 42.1349C102.376 42.1349 102.2 42.1656 102.03 42.2271C101.861 42.285 101.715 42.3663 101.594 42.4712L101.417 42.1837C101.564 42.0607 101.741 41.9667 101.947 41.9016C102.154 41.8329 102.371 41.7985 102.599 41.7985ZM102.461 44.3971C102.682 44.3971 102.872 44.3482 103.03 44.2506C103.188 44.1493 103.306 44.0047 103.384 43.8166V43.35H102.472C101.975 43.35 101.726 43.52 101.726 43.86C101.726 44.0263 101.791 44.1584 101.92 44.256C102.049 44.35 102.229 44.3971 102.461 44.3971Z" fill="CurrentColor"/>
<path d="M104.82 41.8202H105.212V43.0842H107.041V41.8202H107.433V44.6737H107.041V43.4151H105.212V44.6737H104.82V41.8202Z" fill="CurrentColor"/>
<path d="M108.548 41.8202H108.94V44.0878L110.879 41.8202H111.227V44.6737H110.835V42.4061L108.901 44.6737H108.548V41.8202Z" fill="CurrentColor"/>
<path d="M113.706 43.1873C113.912 43.2343 114.07 43.3157 114.181 43.4314C114.295 43.5471 114.352 43.6882 114.352 43.8546C114.352 44.0209 114.293 44.1692 114.175 44.2994C114.061 44.4296 113.904 44.5309 113.706 44.6032C113.507 44.6719 113.288 44.7063 113.048 44.7063C112.838 44.7063 112.632 44.6773 112.43 44.6195C112.227 44.558 112.05 44.4694 111.899 44.3537L112.032 44.0661C112.164 44.1638 112.319 44.2397 112.496 44.294C112.673 44.3482 112.851 44.3754 113.032 44.3754C113.3 44.3754 113.52 44.3265 113.689 44.2289C113.862 44.1276 113.949 43.992 113.949 43.822C113.949 43.6701 113.879 43.5526 113.739 43.4694C113.599 43.3826 113.407 43.3392 113.164 43.3392H112.667V43.0571H113.142C113.359 43.0571 113.534 43.0173 113.667 42.9377C113.799 42.8546 113.866 42.7443 113.866 42.6068C113.866 42.4549 113.79 42.3356 113.639 42.2488C113.492 42.162 113.299 42.1186 113.059 42.1186C112.746 42.1186 112.437 42.1963 112.131 42.3519L112.021 42.0535C112.367 41.8763 112.726 41.7877 113.098 41.7877C113.319 41.7877 113.518 41.8202 113.695 41.8853C113.875 41.9468 114.015 42.0354 114.114 42.1511C114.217 42.2669 114.269 42.4007 114.269 42.5526C114.269 42.6972 114.217 42.8256 114.114 42.9377C114.015 43.0499 113.879 43.133 113.706 43.1873Z" fill="CurrentColor"/>
<path d="M116.242 41.7985C116.621 41.7985 116.912 41.8925 117.115 42.0806C117.317 42.2651 117.419 42.5399 117.419 42.9052V44.6737H117.043V44.2289C116.955 44.3772 116.824 44.4929 116.651 44.5761C116.481 44.6593 116.279 44.7008 116.043 44.7008C115.719 44.7008 115.461 44.6249 115.27 44.473C115.078 44.3211 114.983 44.1204 114.983 43.8708C114.983 43.6285 115.071 43.4332 115.248 43.2849C115.428 43.1367 115.714 43.0625 116.104 43.0625H117.027V42.8889C117.027 42.643 116.957 42.4567 116.817 42.3302C116.677 42.2 116.472 42.1349 116.203 42.1349C116.019 42.1349 115.843 42.1656 115.673 42.2271C115.504 42.285 115.358 42.3663 115.237 42.4712L115.06 42.1837C115.207 42.0607 115.384 41.9667 115.59 41.9016C115.796 41.8329 116.014 41.7985 116.242 41.7985ZM116.104 44.3971C116.325 44.3971 116.515 44.3482 116.673 44.2506C116.831 44.1493 116.949 44.0047 117.027 43.8166V43.35H116.115C115.618 43.35 115.369 43.52 115.369 43.86C115.369 44.0263 115.434 44.1584 115.563 44.256C115.692 44.35 115.872 44.3971 116.104 44.3971Z" fill="CurrentColor"/>
<path d="M121.49 44.3374V45.3898H121.12V44.6737H118.463V41.8202H118.855V44.3374H120.628V41.8202H121.02V44.3374H121.49Z" fill="CurrentColor"/>
<path d="M122.239 41.8202H122.631V44.0878L124.57 41.8202H124.918V44.6737H124.526V42.4061L122.593 44.6737H122.239V41.8202Z" fill="CurrentColor"/>
<path d="M128.274 41.8202V44.6737H127.915V43.7298H126.893L126.219 44.6737H125.794L126.517 43.6755C126.293 43.6141 126.12 43.5092 125.998 43.3609C125.876 43.2126 125.816 43.0245 125.816 42.7967C125.816 42.4784 125.926 42.2361 126.147 42.0698C126.368 41.9034 126.67 41.8202 127.053 41.8202H128.274ZM126.213 42.8076C126.213 43.2307 126.488 43.4423 127.037 43.4423H127.915V42.162H127.064C126.497 42.162 126.213 42.3772 126.213 42.8076Z" fill="CurrentColor"/>
<path d="M133.445 41.8202V44.6737H133.053V42.162H131.23V44.6737H130.838V41.8202H133.445Z" fill="CurrentColor"/>
<path d="M135.759 44.7008C135.479 44.7008 135.227 44.6394 135.002 44.5164C134.778 44.3898 134.601 44.2162 134.472 43.9956C134.343 43.775 134.279 43.5254 134.279 43.247C134.279 42.9685 134.343 42.7189 134.472 42.4983C134.601 42.2777 134.778 42.1059 135.002 41.983C135.227 41.86 135.479 41.7985 135.759 41.7985C136.039 41.7985 136.291 41.86 136.516 41.983C136.74 42.1059 136.915 42.2777 137.041 42.4983C137.169 42.7189 137.234 42.9685 137.234 43.247C137.234 43.5254 137.169 43.775 137.041 43.9956C136.915 44.2162 136.74 44.3898 136.516 44.5164C136.291 44.6394 136.039 44.7008 135.759 44.7008ZM135.759 44.3591C135.965 44.3591 136.149 44.3139 136.311 44.2235C136.477 44.1294 136.606 43.9974 136.698 43.8274C136.79 43.6575 136.836 43.464 136.836 43.247C136.836 43.03 136.79 42.8365 136.698 42.6665C136.606 42.4965 136.477 42.3663 136.311 42.2759C136.149 42.1819 135.965 42.1349 135.759 42.1349C135.553 42.1349 135.367 42.1819 135.201 42.2759C135.039 42.3663 134.91 42.4965 134.814 42.6665C134.722 42.8365 134.676 43.03 134.676 43.247C134.676 43.464 134.722 43.6575 134.814 43.8274C134.91 43.9974 135.039 44.1294 135.201 44.2235C135.367 44.3139 135.553 44.3591 135.759 44.3591Z" fill="CurrentColor"/>
<path d="M139.787 44.6737L138.865 43.4802L137.936 44.6737H137.495L138.644 43.209L137.55 41.8202H137.992L138.865 42.9377L139.737 41.8202H140.168L139.074 43.209L140.234 44.6737H139.787Z" fill="CurrentColor"/>
<path d="M141.974 44.7008C141.694 44.7008 141.441 44.6394 141.217 44.5164C140.992 44.3898 140.815 44.2162 140.686 43.9956C140.558 43.775 140.493 43.5254 140.493 43.247C140.493 42.9685 140.558 42.7189 140.686 42.4983C140.815 42.2777 140.992 42.1059 141.217 41.983C141.441 41.86 141.694 41.7985 141.974 41.7985C142.253 41.7985 142.506 41.86 142.73 41.983C142.955 42.1059 143.13 42.2777 143.255 42.4983C143.384 42.7189 143.448 42.9685 143.448 43.247C143.448 43.5254 143.384 43.775 143.255 43.9956C143.13 44.2162 142.955 44.3898 142.73 44.5164C142.506 44.6394 142.253 44.7008 141.974 44.7008ZM141.974 44.3591C142.18 44.3591 142.364 44.3139 142.526 44.2235C142.692 44.1294 142.821 43.9974 142.913 43.8274C143.005 43.6575 143.051 43.464 143.051 43.247C143.051 43.03 143.005 42.8365 142.913 42.6665C142.821 42.4965 142.692 42.3663 142.526 42.2759C142.364 42.1819 142.18 42.1349 141.974 42.1349C141.767 42.1349 141.581 42.1819 141.416 42.2759C141.254 42.3663 141.125 42.4965 141.029 42.6665C140.937 42.8365 140.891 43.03 140.891 43.247C140.891 43.464 140.937 43.6575 141.029 43.8274C141.125 43.9974 141.254 44.1294 141.416 44.2235C141.581 44.3139 141.767 44.3591 141.974 44.3591Z" fill="CurrentColor"/>
<path d="M147.104 44.3374V45.3627H146.734V44.6737H144.132V45.3627H143.762V44.3374H143.928C144.123 44.3265 144.256 44.1855 144.326 43.9142C144.396 43.643 144.444 43.2632 144.469 42.775L144.508 41.8202H146.651V44.3374H147.104ZM144.828 42.7967C144.81 43.2018 144.775 43.5363 144.723 43.8003C144.672 44.0607 144.58 44.2397 144.447 44.3374H146.259V42.162H144.862L144.828 42.7967Z" fill="CurrentColor"/>
<path d="M149.067 44.7008C148.788 44.7008 148.535 44.6394 148.311 44.5164C148.086 44.3898 147.909 44.2162 147.78 43.9956C147.651 43.775 147.587 43.5254 147.587 43.247C147.587 42.9685 147.651 42.7189 147.78 42.4983C147.909 42.2777 148.086 42.1059 148.311 41.983C148.535 41.86 148.788 41.7985 149.067 41.7985C149.347 41.7985 149.6 41.86 149.824 41.983C150.049 42.1059 150.224 42.2777 150.349 42.4983C150.478 42.7189 150.542 42.9685 150.542 43.247C150.542 43.5254 150.478 43.775 150.349 43.9956C150.224 44.2162 150.049 44.3898 149.824 44.5164C149.6 44.6394 149.347 44.7008 149.067 44.7008ZM149.067 44.3591C149.274 44.3591 149.458 44.3139 149.62 44.2235C149.786 44.1294 149.914 43.9974 150.006 43.8274C150.099 43.6575 150.145 43.464 150.145 43.247C150.145 43.03 150.099 42.8365 150.006 42.6665C149.914 42.4965 149.786 42.3663 149.62 42.2759C149.458 42.1819 149.274 42.1349 149.067 42.1349C148.861 42.1349 148.675 42.1819 148.509 42.2759C148.347 42.3663 148.219 42.4965 148.123 42.6665C148.031 42.8365 147.985 43.03 147.985 43.247C147.985 43.464 148.031 43.6575 148.123 43.8274C148.219 43.9974 148.347 44.1294 148.509 44.2235C148.675 44.3139 148.861 44.3591 149.067 44.3591Z" fill="CurrentColor"/>
<path d="M153.231 43.1981C153.625 43.2886 153.822 43.5218 153.822 43.898C153.822 44.1475 153.728 44.3392 153.54 44.473C153.353 44.6068 153.073 44.6737 152.701 44.6737H151.381V41.8202H152.662C152.994 41.8202 153.253 41.8835 153.441 42.0101C153.629 42.1367 153.723 42.3175 153.723 42.5526C153.723 42.7081 153.679 42.8419 153.59 42.954C153.505 43.0625 153.386 43.1439 153.231 43.1981ZM151.762 43.0896H152.635C152.859 43.0896 153.03 43.0481 153.148 42.9649C153.27 42.8817 153.331 42.7605 153.331 42.6014C153.331 42.4423 153.27 42.3229 153.148 42.2434C153.03 42.1638 152.859 42.124 152.635 42.124H151.762V43.0896ZM152.684 44.3699C152.935 44.3699 153.122 44.3301 153.248 44.2506C153.373 44.171 153.436 44.0462 153.436 43.8763C153.436 43.7063 153.378 43.5815 153.264 43.5019C153.15 43.4188 152.97 43.3772 152.723 43.3772H151.762V44.3699H152.684Z" fill="CurrentColor"/>
<path d="M158.038 43.1981C158.432 43.2886 158.629 43.5218 158.629 43.898C158.629 44.1475 158.535 44.3392 158.347 44.473C158.159 44.6068 157.879 44.6737 157.507 44.6737H156.187V41.8202H157.469C157.8 41.8202 158.06 41.8835 158.248 42.0101C158.435 42.1367 158.529 42.3175 158.529 42.5526C158.529 42.7081 158.485 42.8419 158.397 42.954C158.312 43.0625 158.192 43.1439 158.038 43.1981ZM156.568 43.0896H157.441C157.666 43.0896 157.837 43.0481 157.955 42.9649C158.076 42.8817 158.137 42.7605 158.137 42.6014C158.137 42.4423 158.076 42.3229 157.955 42.2434C157.837 42.1638 157.666 42.124 157.441 42.124H156.568V43.0896ZM157.491 44.3699C157.741 44.3699 157.929 44.3301 158.054 44.2506C158.179 44.171 158.242 44.0462 158.242 43.8763C158.242 43.7063 158.185 43.5815 158.071 43.5019C157.957 43.4188 157.776 43.3772 157.529 43.3772H156.568V44.3699H157.491Z" fill="CurrentColor"/>
<path d="M163.049 42.162H161.386V44.6737H160.994V41.8202H163.049V42.162Z" fill="CurrentColor"/>
<path d="M164.679 44.7008C164.399 44.7008 164.147 44.6394 163.923 44.5164C163.698 44.3898 163.521 44.2162 163.392 43.9956C163.263 43.775 163.199 43.5254 163.199 43.247C163.199 42.9685 163.263 42.7189 163.392 42.4983C163.521 42.2777 163.698 42.1059 163.923 41.983C164.147 41.86 164.399 41.7985 164.679 41.7985C164.959 41.7985 165.211 41.86 165.436 41.983C165.661 42.1059 165.836 42.2777 165.961 42.4983C166.09 42.7189 166.154 42.9685 166.154 43.247C166.154 43.5254 166.09 43.775 165.961 43.9956C165.836 44.2162 165.661 44.3898 165.436 44.5164C165.211 44.6394 164.959 44.7008 164.679 44.7008ZM164.679 44.3591C164.886 44.3591 165.07 44.3139 165.232 44.2235C165.397 44.1294 165.526 43.9974 165.618 43.8274C165.71 43.6575 165.757 43.464 165.757 43.247C165.757 43.03 165.71 42.8365 165.618 42.6665C165.526 42.4965 165.397 42.3663 165.232 42.2759C165.07 42.1819 164.886 42.1349 164.679 42.1349C164.473 42.1349 164.287 42.1819 164.121 42.2759C163.959 42.3663 163.83 42.4965 163.735 42.6665C163.643 42.8365 163.597 43.03 163.597 43.247C163.597 43.464 163.643 43.6575 163.735 43.8274C163.83 43.9974 163.959 44.1294 164.121 44.2235C164.287 44.3139 164.473 44.3591 164.679 44.3591Z" fill="CurrentColor"/>
<path d="M168.49 41.7985C168.762 41.7985 169.009 41.86 169.23 41.983C169.451 42.1023 169.624 42.2723 169.749 42.4929C169.874 42.7135 169.937 42.9649 169.937 43.247C169.937 43.5327 169.874 43.7858 169.749 44.0065C169.624 44.2271 169.451 44.3989 169.23 44.5218C169.012 44.6412 168.766 44.7008 168.49 44.7008C168.254 44.7008 168.04 44.6538 167.849 44.5598C167.661 44.4622 167.506 44.3211 167.385 44.1367V45.7262H166.992V41.8202H167.368V42.3844C167.486 42.1963 167.641 42.0517 167.832 41.9504C168.027 41.8492 168.246 41.7985 168.49 41.7985ZM168.462 44.3591C168.664 44.3591 168.849 44.3139 169.014 44.2235C169.18 44.1294 169.309 43.9974 169.401 43.8274C169.497 43.6575 169.545 43.464 169.545 43.247C169.545 43.03 169.497 42.8383 169.401 42.6719C169.309 42.5019 169.18 42.3699 169.014 42.2759C168.849 42.1819 168.664 42.1349 168.462 42.1349C168.256 42.1349 168.07 42.1819 167.904 42.2759C167.742 42.3699 167.613 42.5019 167.517 42.6719C167.425 42.8383 167.379 43.03 167.379 43.247C167.379 43.464 167.425 43.6575 167.517 43.8274C167.613 43.9974 167.742 44.1294 167.904 44.2235C168.07 44.3139 168.256 44.3591 168.462 44.3591Z" fill="CurrentColor"/>
<path d="M172 42.8293C172.365 42.8329 172.643 42.9124 172.834 43.0679C173.026 43.2235 173.122 43.4477 173.122 43.7406C173.122 44.0444 173.019 44.2777 172.812 44.4404C172.606 44.6032 172.311 44.6828 171.928 44.6791L170.779 44.6737V41.8202H171.172V42.8184L172 42.8293ZM173.608 41.8202H174V44.6737H173.608V41.8202ZM171.906 44.3862C172.175 44.3898 172.378 44.3374 172.514 44.2289C172.654 44.1168 172.724 43.954 172.724 43.7406C172.724 43.5309 172.656 43.3754 172.52 43.2741C172.383 43.1728 172.179 43.1204 171.906 43.1168L171.172 43.1059V44.3754L171.906 44.3862Z" fill="CurrentColor"/>
</g></symbol><symbol id="moon-icon" viewBox="0 0 12 12"><g fill="none">
<g clip-path="url(#clip0_702_629)">
<path d="M11.1966 6.75379C11.0851 6.72581 10.9736 6.75379 10.876 6.82374C10.5135 7.13153 10.0953 7.38335 9.6352 7.55123C9.20301 7.71912 8.72901 7.80306 8.22712 7.80306C7.09786 7.80306 6.0662 7.34138 5.32731 6.5999C4.58841 5.85842 4.12835 4.82314 4.12835 3.68994C4.12835 3.21427 4.212 2.75259 4.35141 2.33289C4.50477 1.8852 4.72783 1.47949 5.0206 1.12973C5.14607 0.975839 5.11819 0.751995 4.96483 0.626083C4.86724 0.556132 4.75571 0.528152 4.64418 0.556132C3.45916 0.877907 2.4275 1.59141 1.6886 2.54274C0.977593 3.48008 0.54541 4.64127 0.54541 5.91438C0.54541 7.43931 1.15883 8.82434 2.16261 9.83164C3.16639 10.8389 4.54659 11.4545 6.0662 11.4545C7.34881 11.4545 8.53383 11.0068 9.48184 10.2653C10.4438 9.50986 11.1409 8.43262 11.4336 7.20148C11.5033 6.99163 11.3918 6.79576 11.1966 6.75379ZM9.0636 9.67774C8.255 10.3213 7.22334 10.713 6.09408 10.713C4.76965 10.713 3.57069 10.1674 2.70633 9.30001C1.84196 8.43262 1.29825 7.22946 1.29825 5.90039C1.29825 4.79516 1.66072 3.78787 2.28808 2.97644C2.72027 2.41683 3.26398 1.95515 3.89134 1.63338C3.82164 1.78727 3.75193 1.94116 3.69617 2.10904C3.51493 2.61269 3.43128 3.14432 3.43128 3.70393C3.43128 5.033 3.97499 6.25015 4.83936 7.11754C5.70373 7.98493 6.91663 8.53055 8.24106 8.53055C8.8266 8.53055 9.38425 8.43262 9.90008 8.23675C10.0813 8.1668 10.2626 8.09685 10.4299 8.01291C10.0953 8.65646 9.6352 9.23006 9.0636 9.67774Z" fill="white"/>
</g>

</g></symbol><symbol id="night-icon" viewBox="0 0 20 20"><g fill="none">
<path d="M17.6218 11.1056C17.4582 11.0646 17.2946 11.1056 17.1515 11.2082C16.6199 11.6596 16.0065 12.029 15.3317 12.2752C14.6978 12.5214 14.0026 12.6445 13.2665 12.6445C11.6103 12.6445 10.0972 11.9674 9.01345 10.8799C7.92974 9.79241 7.25498 8.27401 7.25498 6.61197C7.25498 5.91433 7.37766 5.2372 7.58213 4.62163C7.80706 3.96503 8.13421 3.36998 8.56361 2.857C8.74763 2.63129 8.70674 2.30299 8.48182 2.11832C8.33869 2.01573 8.17511 1.97469 8.01153 2.01573C6.2735 2.48766 4.7604 3.53413 3.67668 4.92942C2.63387 6.30419 2 8.00726 2 9.87449C2 12.1111 2.89968 14.1424 4.3719 15.6198C5.84411 17.0972 7.8684 18 10.0972 18C11.9783 18 13.7163 17.3434 15.1068 16.2559C16.5176 15.1479 17.54 13.5679 17.9694 11.7622C18.0716 11.4544 17.9081 11.1672 17.6218 11.1056ZM14.4933 15.3941C13.3074 16.338 11.7943 16.9125 10.1381 16.9125C8.19556 16.9125 6.43708 16.1123 5.16934 14.8401C3.90161 13.5679 3.10416 11.8033 3.10416 9.85397C3.10416 8.23297 3.63579 6.75561 4.55592 5.56551C5.18979 4.74475 5.98724 4.06762 6.90737 3.59569C6.80513 3.82139 6.7029 4.0471 6.62111 4.29333C6.35529 5.03201 6.23261 5.81173 6.23261 6.63249C6.23261 8.58179 7.03006 10.3669 8.29779 11.6391C9.56553 12.9113 11.3445 13.7115 13.287 13.7115C14.1457 13.7115 14.9636 13.5679 15.7202 13.2806C15.986 13.178 16.2518 13.0754 16.4972 12.9523C16.0065 13.8962 15.3317 14.7375 14.4933 15.3941Z" fill="white"/>
</g></symbol><symbol id="slider-vk-icon" viewBox="0 0 24 24"><g fill="none">
<rect opacity="0.3" x="0.5" y="0.5" width="23" height="23" stroke="#2D383F"/>
<path d="M18.9258 15.2259C18.9088 15.1893 18.893 15.1589 18.8783 15.1346C18.6354 14.6964 18.1712 14.1587 17.4861 13.5211L17.4716 13.5065L17.4643 13.4993L17.457 13.492H17.4497C17.1387 13.1951 16.9418 12.9954 16.8593 12.8932C16.7084 12.6985 16.6746 12.5015 16.7571 12.3018C16.8154 12.1509 17.0342 11.8323 17.4131 11.3455C17.6125 11.0876 17.7703 10.8808 17.8869 10.725C18.7276 9.60555 19.0921 8.8902 18.9803 8.57868L18.9369 8.50588C18.9077 8.46205 18.8324 8.42196 18.711 8.38539C18.5894 8.3489 18.434 8.34287 18.2444 8.36718L16.1452 8.38171C16.1111 8.36964 16.0626 8.37076 15.9993 8.38539C15.9361 8.40002 15.9045 8.40736 15.9045 8.40736L15.868 8.42564L15.839 8.4476C15.8147 8.46213 15.788 8.48767 15.7588 8.52419C15.7297 8.56057 15.7055 8.60328 15.6861 8.65194C15.4575 9.24084 15.1977 9.78838 14.906 10.2945C14.7262 10.5963 14.5611 10.8579 14.4103 11.0793C14.2597 11.3007 14.1333 11.4639 14.0313 11.5684C13.9292 11.6731 13.837 11.7569 13.7543 11.8202C13.6716 11.8836 13.6085 11.9104 13.5649 11.9006C13.5211 11.8908 13.4798 11.8811 13.4408 11.8714C13.3728 11.8275 13.3181 11.7679 13.2769 11.6925C13.2355 11.6171 13.2076 11.5221 13.193 11.4077C13.1785 11.2933 13.17 11.1949 13.1675 11.1121C13.1652 11.0294 13.1663 10.9125 13.1712 10.7616C13.1763 10.6107 13.1785 10.5085 13.1785 10.455C13.1785 10.27 13.1821 10.0693 13.1894 9.85269C13.1967 9.63611 13.2027 9.46451 13.2076 9.33809C13.2126 9.21154 13.2149 9.07766 13.2149 8.93651C13.2149 8.79536 13.2063 8.68467 13.1894 8.60432C13.1726 8.52408 13.1469 8.4462 13.113 8.37069C13.0789 8.29526 13.0291 8.2369 12.9636 8.19548C12.898 8.15411 12.8165 8.12128 12.7194 8.09688C12.4618 8.0385 12.1338 8.00692 11.7353 8.00202C10.8315 7.9923 10.2507 8.05075 9.99317 8.1773C9.89112 8.23077 9.79878 8.30382 9.71621 8.39623C9.62872 8.50335 9.61651 8.5618 9.67968 8.57141C9.97129 8.61517 10.1777 8.71982 10.2992 8.88529L10.343 8.97297C10.3771 9.03623 10.4111 9.14823 10.4451 9.30881C10.4791 9.46939 10.501 9.64703 10.5107 9.84162C10.5349 10.197 10.5349 10.5012 10.5107 10.7542C10.4863 11.0073 10.4634 11.2044 10.4414 11.3456C10.4195 11.4867 10.3867 11.6011 10.343 11.6887C10.2992 11.7763 10.2701 11.8298 10.2555 11.8492C10.2409 11.8687 10.2288 11.8809 10.2191 11.8857C10.156 11.91 10.0903 11.9223 10.0223 11.9223C9.95418 11.9223 9.87162 11.8882 9.77445 11.82C9.6773 11.7519 9.57648 11.6582 9.47198 11.539C9.36749 11.4197 9.24964 11.253 9.11838 11.0389C8.98723 10.8247 8.85115 10.5717 8.71023 10.2797L8.59363 10.0679C8.52074 9.93165 8.42117 9.73328 8.29481 9.47295C8.16839 9.21251 8.05664 8.96059 7.95949 8.71724C7.92066 8.61504 7.86232 8.53723 7.78458 8.48368L7.7481 8.46172C7.72385 8.44228 7.68491 8.42165 7.6315 8.39966C7.57801 8.37769 7.5222 8.36194 7.46384 8.35225L5.4666 8.36678C5.26251 8.36678 5.12403 8.41308 5.05111 8.50557L5.02193 8.54932C5.00735 8.57369 5 8.61261 5 8.66618C5 8.71972 5.01458 8.78544 5.04376 8.86325C5.33532 9.54956 5.65239 10.2114 5.99496 10.849C6.33753 11.4866 6.63522 12.0002 6.88784 12.3893C7.14052 12.7787 7.39807 13.1462 7.6605 13.4917C7.92293 13.8373 8.09665 14.0587 8.18164 14.156C8.26673 14.2535 8.33357 14.3264 8.38216 14.375L8.56442 14.5502C8.68104 14.667 8.8523 14.807 9.07828 14.97C9.3043 15.1331 9.55453 15.2937 9.82908 15.452C10.1037 15.61 10.4232 15.739 10.7877 15.8387C11.1521 15.9386 11.5068 15.9787 11.8519 15.9593H12.6902C12.8602 15.9446 12.989 15.8911 13.0765 15.7987L13.1055 15.7621C13.125 15.733 13.1433 15.6879 13.1601 15.6272C13.1772 15.5663 13.1857 15.4993 13.1857 15.4264C13.1807 15.2172 13.1966 15.0286 13.2329 14.8607C13.2693 14.6929 13.3107 14.5663 13.357 14.4811C13.4033 14.3959 13.4555 14.3241 13.5136 14.2658C13.5719 14.2075 13.6134 14.1721 13.6378 14.1599C13.662 14.1477 13.6813 14.1394 13.6959 14.1344C13.8125 14.0955 13.9498 14.1332 14.1079 14.2476C14.2658 14.362 14.414 14.5032 14.5525 14.6711C14.691 14.8391 14.8575 15.0276 15.0518 15.2368C15.2463 15.4461 15.4163 15.6017 15.562 15.7041L15.7078 15.7917C15.8051 15.8501 15.9314 15.9037 16.087 15.9523C16.2422 16.001 16.3782 16.0131 16.495 15.9888L18.361 15.9597C18.5456 15.9597 18.6892 15.9291 18.7911 15.8683C18.8931 15.8075 18.9538 15.7405 18.9733 15.6676C18.9928 15.5946 18.9939 15.5118 18.977 15.4192C18.9597 15.3269 18.9427 15.2623 18.9258 15.2259Z" fill="#2D383F"/>
</g></symbol><symbol id="tours-arrow-right" viewBox="0 0 9 14"><g fill="none">
<path d="M1.5 13L7.5 7L1.5 1" stroke="#2D383F" stroke-width="2"/>
</g></symbol></svg>