<svg width="54" height="54" viewBox="0 0 54 54" fill="none" xmlns="http://www.w3.org/2000/svg">
<rect x="0.5" y="0.5" width="53" height="53" stroke="#0266C1"/>
<path d="M37.5984 30.538C38.2763 28.2529 37.7185 25.6592 37.1258 23.8619C37.1219 23.7924 37.102 23.725 37.0677 23.6659C36.8663 23.0821 36.6803 22.6026 36.5215 22.2565C36.8139 22.1312 37.0067 21.8279 37.0096 21.4892V18.0156C37.0096 17.555 36.6627 17.1816 36.2348 17.1816H26.7171C26.5032 17.1812 26.3295 17.3676 26.3291 17.5979C26.3291 17.6065 26.3293 17.6151 26.3298 17.6237C26.4615 20.1256 26.291 21.8228 25.7991 23.0196C25.7893 23.0315 25.7802 23.044 25.772 23.0571C25.7705 23.0779 25.7705 23.0989 25.772 23.1197C25.5842 23.5553 25.3302 23.9541 25.0205 24.2998L24.9856 24.3248C24.9856 24.3248 24.9856 24.3248 24.9856 24.354C24.5314 24.8202 24.0077 25.2008 23.4361 25.4799C22.4403 25.9555 21.4183 26.3649 20.3759 26.7058L20.1783 26.7767C16.5564 28.0694 16.0838 30.4129 16.0915 31.5889C16.0906 31.6055 16.0906 31.6222 16.0915 31.6389V34.6163C16.0921 34.7612 16.1625 34.8953 16.2775 34.9707C17.1651 35.5521 18.1233 35.9983 19.1247 36.2968C19.3306 36.3591 19.5445 36.2299 19.6024 36.0082C19.6133 35.9664 19.6181 35.9231 19.6166 35.8798V35.7839H20.1861V36.2008C20.1836 36.4074 20.322 36.5848 20.5115 36.6178C20.8485 36.6762 21.1855 36.7221 21.5147 36.7513C21.6226 36.761 21.7294 36.7217 21.8091 36.6429C21.8888 36.5633 21.9338 36.4513 21.9331 36.3343V35.8089H22.5025V36.401C22.5025 36.6313 22.676 36.818 22.8899 36.818C23.2153 36.818 23.5407 36.818 23.8893 36.768C24.0911 36.7506 24.2463 36.5689 24.2457 36.351V35.8089H24.8151V36.1758C24.8124 36.4061 24.9836 36.5952 25.1975 36.5982C25.2199 36.5985 25.2423 36.5967 25.2645 36.5928C25.9756 36.4756 26.6765 36.2957 27.3602 36.0549L27.4222 36.0257C30.1337 34.3577 31.8537 35.7296 31.9234 35.788C31.991 35.8445 32.0741 35.8753 32.1597 35.8756H32.64C32.854 35.8756 33.0274 35.6889 33.0274 35.4586V34.7539H33.5814V35.4503C33.5814 35.6805 33.7548 35.8673 33.9687 35.8673H35.2161C35.43 35.8673 35.6034 35.6805 35.6034 35.4503V34.7539H36.1767V35.4503C36.1767 35.6805 36.3502 35.8673 36.5641 35.8673H37.5209C37.7348 35.8673 37.9083 35.6805 37.9083 35.4503V30.955C37.9121 30.7537 37.7817 30.5783 37.5984 30.538ZM28.4061 18.024H36.2155V21.4767H28.4061V18.024ZM23.5368 26.3389L23.5407 26.3639C23.8582 26.6414 24.1513 26.9499 24.4162 27.2855C24.3459 27.4112 24.3097 27.5557 24.3116 27.7025C24.3089 28.1423 24.638 28.5012 25.0466 28.5041C25.4552 28.507 25.7886 28.1527 25.7913 27.7128C25.7938 27.2984 25.5007 26.9512 25.1173 26.9143C24.8723 26.5547 24.5931 26.2235 24.2844 25.9261C24.6306 25.714 24.9563 25.4653 25.2567 25.1838C25.6324 25.5632 25.982 25.9716 26.3026 26.4056C26.1679 26.8209 26.3714 27.2751 26.7571 27.4202C27.1429 27.5653 27.5648 27.3462 27.6996 26.931C27.8344 26.5157 27.6309 26.0615 27.2452 25.9164C27.1651 25.8863 27.0809 25.8712 26.996 25.8718H26.9031C26.5633 25.4114 26.1931 24.978 25.7952 24.575C25.9798 24.3303 26.1432 24.0679 26.2833 23.791C26.883 24.1271 27.4626 24.5031 28.0187 24.9169C28.0149 25.3614 28.3465 25.725 28.7594 25.7291C29.1723 25.7332 29.5101 25.3762 29.5139 24.9318C29.5177 24.4873 29.1861 24.1237 28.7732 24.1196C28.6553 24.1184 28.5387 24.1473 28.4332 24.2039C27.8478 23.7773 27.2385 23.3901 26.6087 23.0446C27.0309 21.8353 27.213 20.2299 27.1277 18.0407H27.6352V21.4934C27.6352 21.954 27.982 22.3274 28.4099 22.3274H35.6693C35.77 22.5484 35.9404 22.932 36.1264 23.4324H35.9676C33.6143 23.4507 31.7204 25.5191 31.7374 28.0524C31.747 29.4919 32.3839 30.843 33.4574 31.7015C30.3236 32.5897 25.6093 33.6447 21.6426 33.3694C22.3747 30.2211 21.4992 28.2821 20.9298 27.4314C21.8166 27.1183 22.6868 26.7536 23.5368 26.3389ZM20.1512 27.6691C20.5696 28.1987 21.6619 29.9793 20.8601 33.2527C19.4643 33.1346 18.1086 32.6936 16.8857 31.96C16.8718 31.8647 16.8627 31.7686 16.8585 31.6723V31.6431C16.8276 30.7549 17.1374 28.8325 20.1512 27.6691ZM36.9515 35.0333V34.3369C36.9515 34.1066 36.778 33.9199 36.5641 33.9199H35.2199C35.006 33.9199 34.8326 34.1066 34.8326 34.3369V35.0333H34.3561V34.3369C34.3561 34.1066 34.1826 33.9199 33.9687 33.9199H32.6323C32.4184 33.9199 32.2449 34.1066 32.2449 34.3369V35.0166C31.7181 34.6621 29.7929 33.6322 27.0619 35.2751C26.576 35.4478 26.0805 35.587 25.5783 35.6921V35.4044C25.5783 35.1741 25.4048 34.9874 25.1909 34.9874H23.8545C23.6405 34.9874 23.4671 35.1741 23.4671 35.4044V35.9757H23.2695V35.3919C23.2695 35.1616 23.0961 34.9749 22.8822 34.9749H21.538C21.3241 34.9749 21.1506 35.1616 21.1506 35.3919V35.8881L20.9531 35.8589V35.3919C20.9531 35.1616 20.7796 34.9749 20.5657 34.9749H19.2215C19.0245 34.9734 18.8578 35.1313 18.8341 35.3418C18.1466 35.0982 17.4845 34.7781 16.8585 34.3869V32.8941C18.5475 33.8573 20.7323 34.2201 23.0565 34.2201C29.2312 34.2201 36.2968 31.6764 37.1297 31.372L37.1335 35.0333H36.9515ZM36.7617 30.6339C36.4324 30.7507 35.6228 31.0509 34.5033 31.372C32.7701 30.4691 32.0451 28.2246 32.8839 26.359C33.4577 25.0827 34.6506 24.2635 35.9676 24.2414C36.1203 24.2391 36.273 24.2474 36.4247 24.2664L36.4285 24.2789C36.998 26.047 37.5093 28.5698 36.7617 30.6339Z" fill="#0266C1"/>
<path d="M29.8978 18.5286C29.2752 18.5286 28.7705 19.0719 28.7705 19.742C28.7726 20.4113 29.2761 20.9532 29.8978 20.9555C30.5203 20.9555 31.025 20.4122 31.025 19.742C31.025 19.0719 30.5204 18.5286 29.8978 18.5286ZM29.8978 20.1215C29.7031 20.1215 29.5453 19.9516 29.5453 19.742C29.5453 19.5324 29.7031 19.3626 29.8978 19.3626C30.0925 19.3626 30.2503 19.5324 30.2503 19.742C30.2503 19.9516 30.0925 20.1215 29.8978 20.1215Z" fill="#0266C1"/>
</svg>
