<svg width="48" height="48" viewBox="0 0 48 48" fill="none" xmlns="http://www.w3.org/2000/svg">
<rect x="0.5" y="0.5" width="47" height="47" stroke="#0266C1"/>
<path d="M23.662 29.7206C22.9227 26.5975 20.7485 23.9689 17.7549 22.579C16.2806 21.8945 14.6866 21.5471 13.0908 21.5368C13.1842 23.7498 14.0009 25.9041 15.4639 27.6727C17.5203 30.1589 20.6313 31.6146 23.9269 31.6358C23.8999 30.9962 23.8123 30.3552 23.662 29.7206ZM23.662 29.7206C23.0551 27.1567 21.4811 24.9262 19.2807 23.4406C19.3179 23.2191 19.3625 22.998 19.4146 22.7777C20.0402 20.1353 21.6928 17.847 23.9999 16.3633C26.3069 17.847 27.9595 20.1353 28.5851 22.7777C28.6372 22.998 28.6819 23.2191 28.719 23.4406C26.5186 24.9262 24.9447 27.1567 24.3378 29.7206M23.662 29.7206C23.8122 30.355 23.8998 30.9958 23.9268 31.6352C23.9724 31.6357 24.0181 31.636 24.0638 31.636C24.9876 31.636 25.8975 31.5232 26.7742 31.3066C26.7792 31.3 26.7841 31.2934 26.7891 31.2868C25.9111 31.5105 24.9994 31.6298 24.0729 31.6358M24.3378 29.7206C25.0771 26.5975 27.2513 23.9689 30.2449 22.579C31.7192 21.8945 33.3132 21.5471 34.909 21.5368C34.8157 23.7498 33.9989 25.9041 32.536 27.6727C30.4795 30.1589 27.3685 31.6146 24.0729 31.6358M24.3378 29.7206C24.1876 30.3552 24.0999 30.9962 24.0729 31.6358" stroke="#0266C1" stroke-linecap="round" stroke-linejoin="round"/>
</svg>
