<svg width="48" height="48" viewBox="0 0 48 48" fill="none" xmlns="http://www.w3.org/2000/svg">
<rect x="0.5" y="0.5" width="47" height="47" stroke="#0266C1"/>
<path d="M21.5453 23.9039L23.9999 26.3521L28.2953 22.0677M23.9998 13.0908C21.4675 14.3857 18.6463 15.0742 15.7624 15.0742C15.373 15.0742 14.9848 15.0617 14.5983 15.0368C14.0994 17.313 14.0442 19.6814 14.456 22.0106C15.1931 26.1803 17.3796 29.9575 20.6313 32.6791C21.674 33.5517 22.8047 34.2979 23.9998 34.909C25.1949 34.2979 26.3257 33.5517 27.3683 32.6791C30.6201 29.9575 32.8065 26.1802 33.5437 22.0106C33.9554 19.6814 33.9002 17.313 33.4013 15.0368C33.0148 15.0617 32.6266 15.0742 32.2372 15.0742C29.3533 15.0742 26.5321 14.3857 23.9998 13.0908Z" stroke="#0266C1"/>
</svg>
