<svg width="54" height="54" viewBox="0 0 54 54" fill="none" xmlns="http://www.w3.org/2000/svg">
<rect x="0.5" y="0.5" width="53" height="53" stroke="#0266C1"/>
<g clip-path="url(#clip0_2701_457)">
<path d="M34.7921 24.5644H28.948C27.119 24.5644 25.6363 26.058 25.6363 27.9005C25.6363 29.743 27.119 31.2367 28.948 31.2367H31.4804C33.3094 31.2367 34.7921 32.7303 34.7921 34.5728C34.7921 36.4154 33.3094 37.909 31.4804 37.909H19.2077M22.3246 32.3783C22.3246 30.6442 20.9291 29.2384 19.2077 29.2384C17.4863 29.2384 16.0908 30.6442 16.0908 32.3783V32.4963C16.0908 33.1849 16.3074 33.8557 16.7094 34.4126L19.2015 37.8646C19.2046 37.8688 19.2108 37.8688 19.2139 37.8646L21.706 34.4126C22.108 33.8557 22.3246 33.1849 22.3246 32.4963V32.3783ZM19.8102 31.0858L19.8289 31.0947C20.2062 31.2744 20.4812 31.618 20.5757 32.0275C20.6712 32.4415 20.5685 32.8804 20.3026 33.2104C20.0395 33.5367 19.6416 33.7298 19.2243 33.7298H19.1911C18.7738 33.7298 18.3759 33.5367 18.1128 33.2104C17.8469 32.8804 17.7442 32.4415 17.8397 32.0275C17.9342 31.618 18.2092 31.2744 18.5865 31.0947L18.6052 31.0858C18.9866 30.904 19.4288 30.904 19.8102 31.0858ZM37.909 19.2528C37.909 17.5187 36.5135 16.0908 34.7921 16.0908C33.0707 16.0908 31.6752 17.5187 31.6752 19.2528C31.6752 19.9345 31.8934 20.6054 32.2974 21.1523L34.786 24.521C34.789 24.5251 34.7952 24.5251 34.7983 24.521L37.2868 21.1523C37.6908 20.6054 37.909 19.9345 37.909 19.2528ZM35.3862 17.8923L35.4285 17.912C35.796 18.0831 36.0652 18.4147 36.1589 18.8114C36.255 19.2184 36.1553 19.6472 35.89 19.9689L35.8767 19.985C35.618 20.2987 35.2341 20.4802 34.8293 20.4802H34.755C34.3501 20.4802 33.9663 20.2987 33.7076 19.985L33.6943 19.9689C33.4289 19.6472 33.3293 19.2184 33.4253 18.8114C33.519 18.4147 33.7882 18.0831 34.1557 17.912L34.198 17.8923C34.5749 17.7168 35.0093 17.7168 35.3862 17.8923Z" stroke="#0266C1" stroke-linecap="round"/>
</g>
<defs>
<clipPath id="clip0_2701_457">
<rect width="24" height="24" fill="white" transform="translate(15 15)"/>
</clipPath>
</defs>
</svg>
